<svg id="Layer_1" data-name="Layer 1" xmlns="http://www.w3.org/2000/svg" xmlns:xlink="http://www.w3.org/1999/xlink" viewBox="0 0 234.24 40.54"><defs><style>.cls-1{fill:url(#linear-gradient);}.cls-2{fill:url(#linear-gradient-2);}.cls-3{fill:url(#linear-gradient-3);}.cls-4{fill:url(#linear-gradient-4);}.cls-5{fill:url(#linear-gradient-5);}.cls-6{fill:url(#linear-gradient-6);}.cls-7{fill:url(#linear-gradient-7);}.cls-8{fill:url(#linear-gradient-8);}.cls-9{fill:url(#linear-gradient-9);}.cls-10{fill:url(#linear-gradient-10);}.cls-11{fill:#0b4d84;}</style><linearGradient id="linear-gradient" x1="9.31" y1="28.34" x2="9.31" y2="56.71" gradientTransform="matrix(1, 0, 0, -1, 0, 58)" gradientUnits="userSpaceOnUse"><stop offset="0" stop-color="#00588b"/><stop offset="1" stop-color="#132a63"/></linearGradient><linearGradient id="linear-gradient-2" x1="26.93" y1="28.86" x2="26.93" y2="52.49" xlink:href="#linear-gradient"/><linearGradient id="linear-gradient-3" x1="50.38" y1="28.86" x2="50.38" y2="53.18" xlink:href="#linear-gradient"/><linearGradient id="linear-gradient-4" x1="76.92" y1="28.86" x2="76.92" y2="52.49" xlink:href="#linear-gradient"/><linearGradient id="linear-gradient-5" x1="97.07" y1="28.76" x2="97.07" y2="52.49" xlink:href="#linear-gradient"/><linearGradient id="linear-gradient-6" x1="114.96" y1="28.86" x2="114.96" y2="52.49" xlink:href="#linear-gradient"/><linearGradient id="linear-gradient-7" x1="142.04" y1="28.84" x2="142.04" y2="56.2" xlink:href="#linear-gradient"/><linearGradient id="linear-gradient-8" x1="167.17" y1="28.42" x2="167.17" y2="52.95" xlink:href="#linear-gradient"/><linearGradient id="linear-gradient-9" x1="194.29" y1="28.42" x2="194.29" y2="52.93" xlink:href="#linear-gradient"/><linearGradient id="linear-gradient-10" x1="221.26" y1="28.86" x2="221.26" y2="52.49" xlink:href="#linear-gradient"/></defs><title>SimplyRock-logo</title><path class="cls-1" d="M2.45,28.74c-.54-.21-.65-.43-.65-1.18A41.18,41.18,0,0,1,2,22.8c0-.54.1-1,.43-1s.32.32.32.65a6.46,6.46,0,0,0,.33,1.83A4.94,4.94,0,0,0,8.28,28c3.25,0,4.87-2.16,4.87-4.11,0-1.73-.54-3.46-3.57-5.84L8,16.75c-4-3.14-5.4-5.62-5.4-8.54,0-4,3.35-6.81,8.32-6.81a15,15,0,0,1,4.86.65c.33-.11.54,0,.54.32s-.11,1.52-.11,4.33c0,.75-.1,1.08-.43,1.08s-.32-.22-.32-.65a4.77,4.77,0,0,0-5-4.22c-2.71,0-4.33,1.52-4.33,3.68,0,1.62.87,2.92,3.79,5.19l1,.75c4.43,3.24,5.94,5.84,5.94,9.19A7.17,7.17,0,0,1,13.47,28,10.12,10.12,0,0,1,7.74,29.5,11.83,11.83,0,0,1,2.45,28.74Z" transform="translate(-1.09 -1.4)"/><path class="cls-2" d="M24.71,14.59c0-4.76,0-5.62-.1-6.6s-.33-1.62-1.09-1.73a3.92,3.92,0,0,0-1.08-.1c-.32,0-.54-.11-.54-.33s.22-.21.76-.21c1.19,0,3.13.1,4.11.1.75,0,2.59-.1,3.78-.1.43,0,.65.1.65.21s-.22.33-.54.33a3.54,3.54,0,0,0-1,.1c-.87.11-1.09.65-1.19,1.73s-.11,1.84-.11,6.6V20.1c0,3,0,5.51.11,6.81.1.86.32,1.4,1.29,1.51a7.55,7.55,0,0,0,1.62.11c.33,0,.54.11.54.21s-.21.33-.54.33c-2.05,0-4-.11-4.86-.11s-2.7.11-3.89.11c-.43,0-.65-.11-.65-.33s.11-.21.54-.21.87-.11,1.08-.11c.65-.11.87-.65.87-1.51.11-1.3.11-3.79.11-6.81V14.59Z" transform="translate(-1.09 -1.4)"/><path class="cls-3" d="M40.06,5.62c.11-.55.33-.87.54-.87s.43.11.87,1L50,23.34,58.54,5.51c.22-.54.44-.76.65-.76s.43.32.54,1l2.81,19.35c.33,1.95.54,2.92,1.52,3.13a5,5,0,0,0,1.94.33c.32,0,.54,0,.54.21s-.32.33-.86.33c-.76,0-5.08-.11-6.38-.22-.76-.11-.87-.11-.87-.32s.11-.22.33-.33.32-.43.11-1.29L57,13.18h-.11L50.11,27.34c-.75,1.51-.86,1.73-1.19,1.73s-.54-.65-1.08-1.51c-.75-1.41-3.24-6.27-3.56-7.14-.33-.65-2.17-4.65-3.25-6.91h-.1L39.3,25.93a7.77,7.77,0,0,0-.1,1.52c0,.54.43.86,1,1a6.09,6.09,0,0,0,1.3.11c.21,0,.43.11.43.21,0,.33-.33.33-.76.33-1.3,0-2.7-.11-3.24-.11s-2,.11-3.14.11c-.32,0-.54-.11-.54-.33s.22-.21.54-.21a4.14,4.14,0,0,0,1-.11c.86-.22,1.08-1.4,1.29-2.49Z" transform="translate(-1.09 -1.4)"/><path class="cls-4" d="M71.51,14.59c0-4.76,0-5.62-.11-6.6s-.32-1.51-1.29-1.73a4,4,0,0,0-1.19-.1c-.33,0-.54-.11-.54-.33s.21-.32.65-.32c1.62,0,3.67.11,4.54.11,1.29,0,3.13-.11,4.54-.11,3.89,0,5.29,1.29,5.83,1.73a5.5,5.5,0,0,1,1.52,3.67,7.36,7.36,0,0,1-7.68,7.57h-.65a.35.35,0,0,1-.32-.33c0-.21.22-.32.86-.32,1.73,0,4.22-1.95,4.22-5.19A5.9,5.9,0,0,0,80.05,8,4.26,4.26,0,0,0,76.92,6.8a3.6,3.6,0,0,0-1.19.11.64.64,0,0,0-.22.54V20c0,2.92,0,5.3.11,6.7.11.87.32,1.51,1.19,1.73a7.5,7.5,0,0,0,1.62.11c.32,0,.54.11.54.21s-.22.33-.54.33c-2.05,0-4-.11-4.86-.11s-2.71.11-3.89.11c-.44,0-.65-.11-.65-.33s.11-.21.54-.21.86-.11,1.08-.11c.65-.11.75-.86.86-1.73.11-1.3.11-3.78.11-6.7v-5.4Z" transform="translate(-1.09 -1.4)"/><path class="cls-5" d="M95.83,20.1c0,4,0,6.16.65,6.7s1.3.65,3.78.65c1.62,0,2.92,0,3.68-.87a5.8,5.8,0,0,0,.86-1.83c0-.33.11-.44.33-.44s.21.11.21.54a27.46,27.46,0,0,1-.43,3.57c-.22.65-.32.87-2,.87-2.27,0-3.89-.11-5.29-.11s-2.6-.11-3.89-.11H92.05c-.76,0-1.51.11-2.16.11-.44,0-.65-.11-.65-.33s.11-.21.54-.21.86-.11,1.08-.11c.65-.11.76-.87.86-1.73.11-1.3.11-3.78.11-6.7V14.59c0-4.76,0-5.62-.11-6.6s-.32-1.51-1.29-1.73a3.26,3.26,0,0,0-1.08-.1c-.33,0-.54-.11-.54-.33s.21-.32.64-.32c1.52,0,3.46.11,4.33.11s3-.11,4.21-.11c.44,0,.65.11.65.32s-.21.33-.54.33a4.83,4.83,0,0,0-1.19.1c-.86.11-1.08.65-1.19,1.73s-.1,1.84-.1,6.6V20.1Z" transform="translate(-1.09 -1.4)"/><path class="cls-6" d="M113.12,21.07a5.94,5.94,0,0,0-.75-3.24c-.22-.54-4.43-7.35-5.51-9a6.23,6.23,0,0,0-2.17-2.27,3.54,3.54,0,0,0-1.29-.43c-.22,0-.44-.11-.44-.33s.22-.32.55-.32c.54,0,2.91.11,3.89.11.64,0,1.94-.11,3.35-.11.32,0,.43.11.43.32s-.22.22-.65.33a.54.54,0,0,0-.43.54,3,3,0,0,0,.32,1.08c.43,1,4.87,8.43,5.3,9.29.32-.75,4.21-7.67,4.65-8.64a3.69,3.69,0,0,0,.43-1.63.69.69,0,0,0-.65-.75c-.32-.11-.54-.11-.54-.33s.11-.32.54-.32c1.08,0,2,.11,2.92.11.65,0,2.7-.11,3.35-.11.32,0,.54.11.54.22s-.22.32-.54.32a4.36,4.36,0,0,0-1.41.32,5.26,5.26,0,0,0-1.73,1.52,95.43,95.43,0,0,0-5.94,9.94,7.89,7.89,0,0,0-.43,3.13v2.6c0,.54,0,1.84.11,3.13.1.87.32,1.62,1.29,1.73a7,7,0,0,0,1.52.11c.32,0,.54.11.54.22s-.22.32-.65.32c-2,0-3.89-.11-4.76-.11s-2.7.11-3.89.11c-.43,0-.65-.11-.65-.32s.11-.22.54-.22.87-.11,1.08-.11c.65-.11.87-.86,1-1.73.1-1.29.1-2.59.1-3.13Z" transform="translate(-1.09 -1.4)"/><path class="cls-7" d="M131.39,12.32c0-5.52,0-6.49-.11-7.68s-.32-1.83-1.51-2a5.26,5.26,0,0,0-1.41-.11c-.43,0-.64-.11-.64-.32s.21-.33.75-.33c1.95,0,4.22.11,5,.11,1.19,0,4-.11,5.08-.11,2.27,0,4.76.22,6.7,1.52a6.22,6.22,0,0,1,2.49,5c0,2.7-1.08,5.19-4.76,8.1,3.25,4,5.73,7.24,7.89,9.51,2.06,2.06,3.46,2.38,4.11,2.49a3.66,3.66,0,0,0,1,.11c.33,0,.44.11.44.32s-.22.33-.65.33h-3.46a8.42,8.42,0,0,1-3.89-.65c-1.51-.87-2.92-2.49-5-5.3-1.41-1.94-3.14-4.43-3.57-5a.79.79,0,0,0-.65-.22l-3.13-.1c-.22,0-.33.1-.33.32v.54a72,72,0,0,0,.22,7.78c.11,1.08.32,1.84,1.4,2a9.79,9.79,0,0,0,1.73.11c.33,0,.44.1.44.32s-.22.33-.76.33c-2.05,0-4.76-.11-5.3-.11s-2.91.11-4.43.11c-.43,0-.75-.11-.75-.33s.1-.32.54-.32,1-.11,1.29-.11c.76-.11.87-1,1.08-2a70.81,70.81,0,0,0,.22-7.67V12.32Zm4.22,2.81c0,.43.1.54.32.64a10.74,10.74,0,0,0,2.7.33c1.41,0,2-.11,2.6-.65,1.08-.76,2.16-2.49,2.16-5.4,0-5.19-3.35-6.6-5.51-6.6a9.21,9.21,0,0,0-1.95.11.5.5,0,0,0-.32.54v11Z" transform="translate(-1.09 -1.4)"/><path class="cls-8" d="M154.41,17.29c0-5.3,3.57-12.22,12.86-12.22,7.79,0,12.65,4.54,12.65,11.68s-5,12.86-13,12.86C158.09,29.61,154.41,22.91,154.41,17.29Zm21.19.65c0-7-4-11.35-9.19-11.35-3.57,0-7.68,2.05-7.68,9.83,0,6.49,3.57,11.68,9.62,11.68C170.52,28,175.6,26.91,175.6,17.94Z" transform="translate(-1.09 -1.4)"/><path class="cls-9" d="M187.27,26.15A11.88,11.88,0,0,1,183.38,17a11.51,11.51,0,0,1,3.67-8.53c2.27-2.06,5.19-3.36,9.84-3.36a26.64,26.64,0,0,1,4.54.33c1.19.11,2.16.43,3.13.54.33,0,.43.22.43.32s-.1.65-.1,1.73,0,2.71-.11,3.35c0,.44-.11.76-.33.76s-.32-.22-.32-.65a4.6,4.6,0,0,0-1.19-2.92c-1.08-1.08-3.46-1.94-6.38-1.94-2.7,0-4.54.65-5.83,1.94-2.27,2.06-2.92,5.08-2.92,8.11,0,7.46,5.62,11.13,9.83,11.13,2.81,0,4.44-.32,5.73-1.73A4.65,4.65,0,0,0,204.45,24c.11-.54.11-.65.44-.65s.32.22.32.43a25.2,25.2,0,0,1-.65,4.11c-.11.54-.32.65-.86.86a17,17,0,0,1-5.62.76C193.75,29.61,190.19,28.64,187.27,26.15Z" transform="translate(-1.09 -1.4)"/><path class="cls-10" d="M215.69,16h.11c1.08-1.19,5.62-5.84,6.49-6.92s1.51-1.83,1.51-2.37a.59.59,0,0,0-.43-.65c-.33-.11-.43-.11-.43-.33s.1-.32.54-.32c.64,0,2.37.11,3.24.11s2.7-.11,3.67-.11c.33,0,.54.11.54.32s-.1.33-.43.33a6.83,6.83,0,0,0-1.84.32,9.29,9.29,0,0,0-3.35,2.38c-1,1-5.72,5.62-6.7,6.7,1.08,1.51,7.24,8.11,8.43,9.19A16.24,16.24,0,0,0,231.47,28a6.53,6.53,0,0,0,1.95.43c.22,0,.43.11.43.22s-.11.32-.75.32h-2.71a12.24,12.24,0,0,1-2.16-.11c-1.73-.11-2.48-.86-3.89-2.05s-7.57-8.43-8.21-9.3l-.33-.43h-.11v2.81c0,2.92,0,5.3.11,6.7.11.87.33,1.52,1.08,1.73a7.08,7.08,0,0,0,1.52.11c.21,0,.43.11.43.22s-.22.32-.54.32c-1.73,0-3.68-.11-4.54-.11s-2.7.11-3.89.11c-.43,0-.65-.11-.65-.32s.11-.22.54-.22.86-.11,1.08-.11c.65-.11.76-.86.87-1.73.1-1.29.1-3.78.1-6.7V14.37c0-4.76,0-5.62-.1-6.59s-.33-1.52-1.3-1.73a3.66,3.66,0,0,0-1.19-.11c-.33,0-.54-.11-.54-.32s.21-.33.65-.33c1.62,0,3.67.11,4.43.11s2.7-.11,3.78-.11c.43,0,.65.11.65.33s-.22.32-.43.32a2.37,2.37,0,0,0-.87.11c-.86.11-1.08.65-1.19,1.73s-.1,1.83-.1,6.59V16Z" transform="translate(-1.09 -1.4)"/><path class="cls-11" d="M3.17,38.31c0,1.79,0,2.56.26,2.78s.51.28,1.46.28c.64,0,1.17,0,1.47-.37a1.77,1.77,0,0,0,.31-.72c0-.1,0-.16.11-.16s.07.05.07.18a7.36,7.36,0,0,1-.18,1.21c-.08.28-.12.33-.76.33-.88,0-1.51,0-2,0s-.88,0-1.23,0h-.5l-.69,0c-.14,0-.2,0-.2-.1s0-.07.1-.07a2.08,2.08,0,0,0,.36,0c.25-.05.31-.32.36-.67.06-.51.06-1.47.06-2.63V36.15c0-1.89,0-2.23,0-2.62s-.12-.6-.52-.69a2.73,2.73,0,0,0-.41,0,.09.09,0,0,1-.1-.08c0-.07.06-.09.2-.09.54,0,1.31,0,1.37,0l1.31,0c.13,0,.19,0,.19.09a.09.09,0,0,1-.1.08l-.4,0c-.35.06-.45.27-.47.69s0,.73,0,2.62Z" transform="translate(-1.09 -1.4)"/><path class="cls-11" d="M10.81,34.21c.13-.34.18-.4.26-.4s.14.15.25.38c.19.43,1.9,4.69,2.56,6.26.39.92.68,1,.91,1.12a1.46,1.46,0,0,0,.42.07c.06,0,.14,0,.14.08s-.12.09-.25.09-.94,0-1.68,0c-.21,0-.38,0-.38-.07s0-.05.07-.07a.19.19,0,0,0,.1-.28l-1-2.37c0-.05,0-.06-.09-.06H9.69s-.08,0-.1.09L9,40.66a2.1,2.1,0,0,0-.16.7c0,.2.18.28.37.28h.09c.09,0,.11,0,.11.08s-.06.09-.16.09c-.25,0-.83,0-1,0s-.65,0-1.08,0q-.21,0-.21-.09a.09.09,0,0,1,.1-.08l.31,0c.49-.06.69-.42.9-1ZM12,38.51c.05,0,.05,0,0-.08L11,35.61q-.09-.24-.18,0l-1,2.82s0,.08,0,.08Z" transform="translate(-1.09 -1.4)"/><path class="cls-11" d="M19.8,41.66c-.14-.07-.15-.11-.15-.39,0-.51.05-.92.06-1.09s0-.17.08-.17.1,0,.1.12a1.44,1.44,0,0,0,0,.38,1.57,1.57,0,0,0,1.68,1c1.06,0,1.6-.6,1.6-1.37s-.4-1.1-1.34-1.8L21.38,38c-1.15-.86-1.53-1.49-1.53-2.21,0-1.21,1-1.94,2.37-1.94a5.18,5.18,0,0,1,1.1.12,1.36,1.36,0,0,0,.38.05c.08,0,.11,0,.11.07a10.68,10.68,0,0,0,0,1.09c0,.16,0,.23-.09.23s-.08,0-.09-.13a2.32,2.32,0,0,0-.16-.51c-.07-.12-.43-.51-1.38-.51-.78,0-1.42.39-1.42,1.12s.32,1,1.38,1.74l.3.21c1.3.88,1.75,1.6,1.75,2.49a2,2,0,0,1-1,1.75,3.15,3.15,0,0,1-1.69.37A3.89,3.89,0,0,1,19.8,41.66Z" transform="translate(-1.09 -1.4)"/><path class="cls-11" d="M28.34,38.81c0,1,0,1.81.05,2.23s.09.5.42.55c.14,0,.38,0,.48,0s.09,0,.09.08-.05.09-.17.09c-.59,0-1.27,0-1.33,0s-.79,0-1.1,0c-.12,0-.17,0-.17-.09s0-.07.08-.07a1.77,1.77,0,0,0,.32,0c.22-.05.28-.26.32-.56s0-1.24,0-2.23V34.48l-1.54,0c-.66,0-.92.09-1.08.33a2.06,2.06,0,0,0-.17.33c0,.08-.06.1-.1.1a.09.09,0,0,1-.08-.09c0-.11.22-1,.23-1.12s.08-.19.11-.19a2.74,2.74,0,0,0,.47.12,8,8,0,0,0,.84.05h4a4.5,4.5,0,0,0,.76-.05l.31,0s0,.06,0,.12c0,.32,0,1.06,0,1.18s-.05.13-.1.13-.07,0-.08-.18l0-.11c0-.31-.26-.54-1.28-.57l-1.34,0Z" transform="translate(-1.09 -1.4)"/><path class="cls-11" d="M35.13,33.86c2.4,0,4.22,1.47,4.22,3.87a4.13,4.13,0,0,1-4.28,4.21,4,4,0,0,1-4.17-4A4.09,4.09,0,0,1,35.13,33.86Zm.25,7.65c.95,0,2.88-.51,2.88-3.49,0-2.47-1.5-3.77-3.19-3.77S32,35.36,32,37.61,33.45,41.51,35.38,41.51Z" transform="translate(-1.09 -1.4)"/><path class="cls-11" d="M39.91,37c0-1.6,0-1.89,0-2.22s-.08-.52-.44-.57l-.36,0a.11.11,0,0,1-.09-.09c0-.06,0-.08.17-.08l1.27,0,1.33,0a3.56,3.56,0,0,1,2,.44,1.83,1.83,0,0,1,.74,1.41,3,3,0,0,1-1.31,2.35c.87,1.1,1.61,2,2.23,2.67a1.94,1.94,0,0,0,1.19.72,1.79,1.79,0,0,0,.38,0,.08.08,0,0,1,.09.08c0,.06-.06.09-.25.09h-.67A2.2,2.2,0,0,1,45,41.6a5.31,5.31,0,0,1-1.45-1.52c-.45-.55-.93-1.22-1.16-1.5a.15.15,0,0,0-.14-.06l-1.36,0s-.07,0-.07.09v.24c0,1,0,1.8,0,2.22s.1.5.43.55l.47,0c.07,0,.09,0,.09.08s0,.09-.17.09c-.58,0-1.26,0-1.31,0s-.73,0-1.06,0c-.11,0-.17,0-.17-.09a.08.08,0,0,1,.09-.08,1.77,1.77,0,0,0,.32,0c.21-.05.24-.25.28-.55a21.24,21.24,0,0,0,.06-2.23Zm.93.87a.16.16,0,0,0,.07.14,3.82,3.82,0,0,0,1.18.15,1.4,1.4,0,0,0,.8-.18,1.84,1.84,0,0,0,.64-1.57,1.78,1.78,0,0,0-1.84-2,5.27,5.27,0,0,0-.77.06.12.12,0,0,0-.08.12Z" transform="translate(-1.09 -1.4)"/><path class="cls-11" d="M49.2,38.81c0,1,0,1.81,0,2.23s.07.5.38.55c.16,0,.39,0,.49,0a.07.07,0,0,1,.08.08c0,.05,0,.09-.17.09-.59,0-1.28,0-1.33,0s-.73,0-1.05,0c-.11,0-.17,0-.17-.09a.07.07,0,0,1,.08-.08,1.88,1.88,0,0,0,.33,0c.2-.05.24-.25.28-.55s.06-1.24.06-2.23V37c0-1.6,0-1.89,0-2.22s-.11-.51-.34-.56l-.32,0a.1.1,0,0,1-.09-.09c0-.06,0-.08.17-.08l1.08,0,1.07,0c.12,0,.17,0,.17.08a.11.11,0,0,1-.09.09,1.38,1.38,0,0,0-.26,0c-.3.06-.36.21-.38.57s0,.62,0,2.22Z" transform="translate(-1.09 -1.4)"/><path class="cls-11" d="M54.42,34.21c.13-.34.18-.4.25-.4s.15.15.25.38c.2.43,1.91,4.69,2.56,6.26.39.92.68,1,.91,1.12a1.52,1.52,0,0,0,.43.07c.06,0,.13,0,.13.08s-.12.09-.24.09-1,0-1.69,0c-.2,0-.37,0-.37-.07s0-.05.07-.07a.2.2,0,0,0,.1-.28l-1-2.37c0-.05,0-.06-.1-.06H53.3a.1.1,0,0,0-.11.09l-.61,1.64a2.32,2.32,0,0,0-.15.7c0,.2.18.28.36.28h.1c.08,0,.11,0,.11.08s-.06.09-.16.09c-.26,0-.84,0-1,0s-.64,0-1.08,0c-.13,0-.21,0-.21-.09a.09.09,0,0,1,.1-.08l.32,0c.48-.06.69-.42.89-1Zm1.18,4.3s0,0,0-.08l-1-2.82c-.07-.16-.13-.16-.19,0l-1,2.82s0,.08,0,.08Z" transform="translate(-1.09 -1.4)"/><path class="cls-11" d="M64.27,37c0-1.6,0-1.89,0-2.22s-.09-.52-.44-.57l-.36,0a.11.11,0,0,1-.09-.09c0-.06,0-.08.17-.08l1.24,0,1.43,0c1.07,0,3-.1,4.28,1.17a3.62,3.62,0,0,1,1,2.62,4.09,4.09,0,0,1-1.16,2.9,4.3,4.3,0,0,1-3.24,1.19c-.46,0-1,0-1.49-.06l-.87-.06h-.44l-.64,0c-.11,0-.17,0-.17-.09s0-.08.09-.08a1.77,1.77,0,0,0,.32,0c.21-.05.23-.25.28-.55a21.24,21.24,0,0,0,.06-2.23Zm1,1.12c0,1.09,0,2,0,2.24a2,2,0,0,0,.13.74c.13.19.51.41,1.77.41a3.63,3.63,0,0,0,2.5-.93,3.51,3.51,0,0,0,.83-2.45,3.63,3.63,0,0,0-1-2.59A4.45,4.45,0,0,0,66,34.38a3.17,3.17,0,0,0-.64.07.19.19,0,0,0-.14.21Z" transform="translate(-1.09 -1.4)"/><path class="cls-11" d="M72.59,37c0-1.6,0-1.89,0-2.22s-.09-.52-.44-.57l-.36,0a.11.11,0,0,1-.09-.09c0-.06,0-.08.17-.08l1.24,0h2.54c.21,0,.4-.05.49-.06s.1,0,.15,0,0,0,0,.1a4.25,4.25,0,0,0-.08.48c0,.1,0,.56-.06.68s0,.11-.1.11-.08,0-.08-.13a1.55,1.55,0,0,0-.06-.37c-.08-.17-.19-.24-.77-.31-.18,0-1.42,0-1.54,0s-.06,0-.06.11v2.8c0,.08,0,.11.06.11s1.54,0,1.78,0,.42,0,.53-.15.12-.13.15-.13.06,0,.06.08a5.46,5.46,0,0,0-.08.57c0,.21,0,.6,0,.67s0,.2-.1.2-.07,0-.07-.1a.88.88,0,0,0,0-.34c0-.15-.13-.27-.54-.32s-1.43-.05-1.62-.05-.07,0-.07.08v.86c0,.35,0,1.55,0,1.76,0,.69.22.82,1.27.82a3.54,3.54,0,0,0,1.07-.11.78.78,0,0,0,.49-.71c0-.12,0-.16.11-.16s.07.09.07.16a9,9,0,0,1-.15,1c-.07.27-.18.27-.59.27-.8,0-1.42,0-1.86,0l-.88,0h-.46l-.62,0c-.11,0-.17,0-.17-.09a.07.07,0,0,1,.08-.08c.1,0,.23,0,.33,0s.23-.25.28-.55a21.24,21.24,0,0,0,.06-2.23Z" transform="translate(-1.09 -1.4)"/><path class="cls-11" d="M78.81,38.83c0,1.52,0,2.14.22,2.32s.58.24,1.42.24c.56,0,1,0,1.28-.31A1.27,1.27,0,0,0,82,40.5c0-.08.05-.14.11-.14s.07,0,.07.16a5.94,5.94,0,0,1-.16,1c-.07.24-.11.28-.68.28-.76,0-1.35,0-1.85,0l-1.17,0h-.43l-.62,0c-.11,0-.17,0-.17-.09a.07.07,0,0,1,.08-.08,1.88,1.88,0,0,0,.33,0c.21-.05.23-.25.28-.55a21.24,21.24,0,0,0,.06-2.23V37c0-1.6,0-1.89,0-2.22s-.09-.52-.44-.57l-.36,0a.11.11,0,0,1-.09-.09c0-.06,0-.08.17-.08l1.21,0,1.18,0c.11,0,.17,0,.17.08s0,.07-.08.07l-.36,0c-.31.06-.37.22-.4.58s0,.62,0,2.22Z" transform="translate(-1.09 -1.4)"/><path class="cls-11" d="M88.54,36.15c0-1.89,0-2.23,0-2.62s-.12-.6-.52-.69a2.83,2.83,0,0,0-.41,0,.09.09,0,0,1-.1-.08c0-.07.06-.09.19-.09.55,0,1.31,0,1.37,0l1.43,0a3.73,3.73,0,0,1,2.22.53,2.1,2.1,0,0,1,.84,1.65,3.75,3.75,0,0,1-1.47,2.8c1,1.27,1.82,2.35,2.53,3.11a2.48,2.48,0,0,0,1.48.87,2.64,2.64,0,0,0,.47,0c.06,0,.11,0,.11.07s-.08.1-.29.1h-.86a2.44,2.44,0,0,1-1.3-.24,6.18,6.18,0,0,1-1.64-1.78c-.51-.67-1.08-1.48-1.32-1.79a.21.21,0,0,0-.16-.08l-1.49,0c-.06,0-.09,0-.09.1v.29c0,1.16,0,2.12.06,2.63,0,.35.11.62.48.67.17,0,.43,0,.54,0s.1,0,.1.07-.06.1-.19.1c-.67,0-1.44,0-1.5,0s-.77,0-1.14,0c-.13,0-.19,0-.19-.1s0-.07.1-.07a2.23,2.23,0,0,0,.36,0c.24-.05.3-.32.35-.67.06-.51.06-1.47.06-2.63Zm1,1.06a.15.15,0,0,0,.09.14,3.29,3.29,0,0,0,1.27.2,1.61,1.61,0,0,0,.91-.23,2.2,2.2,0,0,0,.74-1.87c0-1.52-.8-2.43-2.1-2.43a3.33,3.33,0,0,0-.81.08.14.14,0,0,0-.1.14Z" transform="translate(-1.09 -1.4)"/><path class="cls-11" d="M99.48,33.86c2.41,0,4.23,1.47,4.23,3.87a4.14,4.14,0,0,1-4.29,4.21,4,4,0,0,1-4.17-4A4.09,4.09,0,0,1,99.48,33.86Zm.25,7.65c1,0,2.88-.51,2.88-3.49,0-2.47-1.5-3.77-3.19-3.77s-3.06,1.11-3.06,3.36S97.8,41.51,99.73,41.51Z" transform="translate(-1.09 -1.4)"/><path class="cls-11" d="M105.84,40.83a3.86,3.86,0,0,1-1.3-3A4.1,4.1,0,0,1,105.75,35a4.43,4.43,0,0,1,3.25-1.1,11.17,11.17,0,0,1,1.55.12,7.76,7.76,0,0,0,1.09.16c.11,0,.13,0,.13.11s0,.2,0,.58,0,.91,0,1.06-.06.21-.12.21-.09-.07-.09-.21a1.39,1.39,0,0,0-.44-1,3.55,3.55,0,0,0-2.1-.56,3.28,3.28,0,0,0-2.4.71,3.36,3.36,0,0,0-1,2.69,3.74,3.74,0,0,0,3.84,3.74,2.23,2.23,0,0,0,1.76-.49,1.82,1.82,0,0,0,.41-.86c0-.11,0-.14.11-.14s.1.07.1.14a12.23,12.23,0,0,1-.25,1.32c-.07.2-.09.24-.27.31a6.34,6.34,0,0,1-1.93.23A5,5,0,0,1,105.84,40.83Z" transform="translate(-1.09 -1.4)"/><path class="cls-11" d="M113.36,37c0-1.6,0-1.89,0-2.22s-.09-.52-.44-.57l-.36,0a.11.11,0,0,1-.09-.09c0-.06,0-.08.17-.08l1.2,0,1.06,0c.12,0,.17,0,.17.08a.1.1,0,0,1-.09.09l-.26,0c-.28.06-.35.21-.38.57s0,.62,0,2.22v.62h0c.17-.2,2.07-2.08,2.47-2.49s.58-.57.58-.74-.05-.19-.13-.2-.1-.06-.1-.1,0-.07.12-.07l.8,0,1,0c.11,0,.16,0,.16.07s0,.08-.11.08a1.6,1.6,0,0,0-.59.15,3.71,3.71,0,0,0-1.12.87c-.26.25-2.08,2-2.31,2.25.27.3,2.49,2.52,2.93,2.92.9.8,1,.93,1.53,1.14a2.32,2.32,0,0,0,.65.15c.08,0,.14,0,.14.08s-.05.09-.23.09h-.55a5.63,5.63,0,0,1-.74,0,2.28,2.28,0,0,1-1.3-.63c-.48-.38-2.73-2.74-3.23-3.35h0v1c0,1,0,1.81,0,2.23s.08.5.41.55a3.77,3.77,0,0,0,.41,0,.07.07,0,0,1,.08.08c0,.05,0,.09-.16.09-.53,0-1.17,0-1.25,0s-.73,0-1.06,0c-.11,0-.17,0-.17-.09s0-.08.09-.08a1.77,1.77,0,0,0,.32,0c.21-.05.23-.25.28-.55a21.24,21.24,0,0,0,.06-2.23Z" transform="translate(-1.09 -1.4)"/><path class="cls-11" d="M125.5,41.66c-.15-.07-.16-.11-.16-.39,0-.51,0-.92.06-1.09s0-.17.09-.17.09,0,.09.12a1.44,1.44,0,0,0,0,.38,1.57,1.57,0,0,0,1.69,1c1.05,0,1.6-.6,1.6-1.37s-.4-1.1-1.35-1.8l-.48-.36c-1.16-.86-1.53-1.49-1.53-2.21,0-1.21,1-1.94,2.36-1.94A5.28,5.28,0,0,1,129,34a1.31,1.31,0,0,0,.37.05c.09,0,.11,0,.11.07a10.68,10.68,0,0,0-.05,1.09c0,.16,0,.23-.08.23s-.09,0-.1-.13a1.89,1.89,0,0,0-.16-.51c-.07-.12-.42-.51-1.38-.51-.78,0-1.42.39-1.42,1.12s.33,1,1.39,1.74l.3.21c1.3.88,1.74,1.6,1.74,2.49a2,2,0,0,1-1,1.75,3.2,3.2,0,0,1-1.7.37A3.85,3.85,0,0,1,125.5,41.66Z" transform="translate(-1.09 -1.4)"/><path class="cls-11" d="M131.18,37c0-1.6,0-1.89,0-2.22s-.09-.52-.44-.57l-.36,0a.11.11,0,0,1-.09-.09c0-.06,0-.08.17-.08l1.23,0,1.08,0c.12,0,.18,0,.18.08a.11.11,0,0,1-.1.09,1.43,1.43,0,0,0-.26,0c-.28,0-.34.23-.37.57s0,.62,0,2.22v1.44c0,1.5.33,2.11.79,2.53a2.08,2.08,0,0,0,1.59.55,2.23,2.23,0,0,0,1.65-.72,3.87,3.87,0,0,0,.6-2.5V37c0-1.6,0-1.89,0-2.22s-.07-.52-.43-.57l-.36,0a.1.1,0,0,1-.09-.09c0-.06.05-.08.17-.08l1.16,0,.89,0c.13,0,.17,0,.17.08a.09.09,0,0,1-.08.09l-.27,0c-.29.06-.35.23-.37.57s0,.62,0,2.22v1.1a4,4,0,0,1-1,3.1,3.26,3.26,0,0,1-2.23.75,2.94,2.94,0,0,1-3.16-3.43Z" transform="translate(-1.09 -1.4)"/><path class="cls-11" d="M142.54,33.86c2.4,0,4.22,1.47,4.22,3.87a4.13,4.13,0,0,1-4.28,4.21,4,4,0,0,1-4.18-4A4.09,4.09,0,0,1,142.54,33.86Zm.24,7.65c1,0,2.89-.51,2.89-3.49,0-2.47-1.51-3.77-3.19-3.77s-3.07,1.11-3.07,3.36S140.85,41.51,142.78,41.51Z" transform="translate(-1.09 -1.4)"/><path class="cls-11" d="M148.06,40.4c0,.85.12,1.1.41,1.17a2.64,2.64,0,0,0,.54.07.07.07,0,0,1,.08.08c0,.06-.07.09-.19.09-.61,0-1,0-1.13,0s-.55,0-1,0c-.11,0-.17,0-.17-.09a.08.08,0,0,1,.09-.08,1.7,1.7,0,0,0,.43-.07c.27-.07.3-.35.3-1.28V34.38c0-.41.07-.52.15-.52s.3.21.41.32,1.73,1.82,3.37,3.51c1.06,1.1,2.2,2.32,2.53,2.66l-.11-5.17c0-.66-.07-.89-.4-1a4.25,4.25,0,0,0-.52,0c-.08,0-.09-.06-.09-.1s.09-.07.21-.07l1.11,0,.91,0c.11,0,.2,0,.2.07a.12.12,0,0,1-.12.1,1.49,1.49,0,0,0-.26,0c-.35.07-.37.28-.37.9l0,6c0,.68,0,.74-.08.74s-.22-.09-.82-.63c-.11-.1-1.65-1.62-2.77-2.79s-2.44-2.56-2.77-2.93Z" transform="translate(-1.09 -1.4)"/><path class="cls-11" d="M159,34.21c.13-.34.18-.4.25-.4s.15.15.26.38c.19.43,1.9,4.69,2.56,6.26.39.92.68,1,.91,1.12a1.41,1.41,0,0,0,.42.07c.06,0,.13,0,.13.08s-.12.09-.24.09-.94,0-1.68,0c-.21,0-.38,0-.38-.07s0-.05.07-.07a.2.2,0,0,0,.1-.28l-1-2.37c0-.05,0-.06-.1-.06h-2.46c-.05,0-.08,0-.11.09l-.6,1.64a2.1,2.1,0,0,0-.16.7c0,.2.18.28.36.28h.1c.09,0,.11,0,.11.08s-.06.09-.16.09c-.25,0-.83,0-1,0s-.64,0-1.08,0c-.13,0-.2,0-.2-.09a.09.09,0,0,1,.1-.08l.31,0c.49-.06.69-.42.9-1Zm1.19,4.3c.05,0,.05,0,0-.08l-1-2.82q-.09-.24-.18,0l-1,2.82s0,.08,0,.08Z" transform="translate(-1.09 -1.4)"/><path class="cls-11" d="M165.93,38.81c0,1,0,1.81,0,2.23s.09.5.42.55l.48,0c.07,0,.09,0,.09.08s-.05.09-.17.09c-.58,0-1.26,0-1.33,0s-.78,0-1.1,0c-.12,0-.17,0-.17-.09s0-.07.09-.07a1.81,1.81,0,0,0,.31,0c.22-.05.28-.26.32-.56s.05-1.24.05-2.23V34.48l-1.54,0c-.67,0-.93.09-1.08.33a1.1,1.1,0,0,0-.17.33c0,.08-.07.1-.11.1a.09.09,0,0,1-.08-.09c0-.11.22-1,.23-1.12s.08-.19.11-.19a3.36,3.36,0,0,0,.48.12,7.71,7.71,0,0,0,.83.05h4a4.5,4.5,0,0,0,.76-.05l.31,0c.05,0,.05.06.05.12,0,.32,0,1.06,0,1.18s-.05.13-.1.13-.07,0-.08-.18v-.11c0-.31-.27-.54-1.29-.57l-1.33,0Z" transform="translate(-1.09 -1.4)"/><path class="cls-11" d="M171.38,34.21c.13-.34.18-.4.25-.4s.15.15.26.38c.19.43,1.9,4.69,2.56,6.26.38.92.68,1,.91,1.12a1.41,1.41,0,0,0,.42.07c.06,0,.13,0,.13.08s-.12.09-.24.09-.94,0-1.68,0c-.21,0-.38,0-.38-.07s0-.05.07-.07a.2.2,0,0,0,.1-.28l-1-2.37c0-.05,0-.06-.1-.06h-2.46s-.08,0-.11.09l-.6,1.64a2.1,2.1,0,0,0-.16.7c0,.2.18.28.36.28h.1c.08,0,.11,0,.11.08s-.06.09-.16.09c-.25,0-.84,0-1,0s-.64,0-1.08,0c-.13,0-.2,0-.2-.09a.09.09,0,0,1,.09-.08l.32,0c.48-.06.69-.42.9-1Zm1.19,4.3s0,0,0-.08l-1-2.82q-.09-.24-.18,0l-1,2.82s0,.08,0,.08Z" transform="translate(-1.09 -1.4)"/><path class="cls-11" d="M181.83,37c0-1.6,0-1.89,0-2.22s-.08-.52-.43-.57l-.37,0a.11.11,0,0,1-.08-.09c0-.06.05-.08.17-.08l1.24,0,1.43,0c1.06,0,3-.1,4.28,1.17a3.66,3.66,0,0,1,1,2.62,4.13,4.13,0,0,1-1.15,2.9,4.3,4.3,0,0,1-3.24,1.19c-.46,0-1,0-1.49-.06l-.87-.06h-.44l-.64,0c-.11,0-.17,0-.17-.09a.07.07,0,0,1,.08-.08,1.88,1.88,0,0,0,.33,0c.21-.05.23-.25.28-.55a21.24,21.24,0,0,0,.06-2.23Zm1,1.12c0,1.09,0,2,0,2.24a2,2,0,0,0,.12.74c.14.19.51.41,1.77.41a3.59,3.59,0,0,0,2.5-.93,3.47,3.47,0,0,0,.84-2.45,3.58,3.58,0,0,0-1-2.59,4.43,4.43,0,0,0-3.45-1.15,3.38,3.38,0,0,0-.65.07.19.19,0,0,0-.13.21Z" transform="translate(-1.09 -1.4)"/><path class="cls-11" d="M191.69,34.21c.13-.34.18-.4.25-.4s.15.15.26.38c.19.43,1.9,4.69,2.56,6.26.38.92.68,1,.91,1.12a1.41,1.41,0,0,0,.42.07c.06,0,.13,0,.13.08s-.12.09-.24.09-.94,0-1.68,0c-.21,0-.38,0-.38-.07s0-.05.07-.07a.2.2,0,0,0,.1-.28l-1-2.37c0-.05,0-.06-.09-.06h-2.47s-.08,0-.11.09l-.6,1.64a2.1,2.1,0,0,0-.16.7c0,.2.18.28.36.28h.1c.09,0,.11,0,.11.08s-.06.09-.16.09c-.25,0-.84,0-1,0s-.64,0-1.08,0c-.13,0-.2,0-.2-.09a.09.09,0,0,1,.1-.08l.31,0c.48-.06.69-.42.9-1Zm1.19,4.3c.05,0,.05,0,0-.08l-1-2.82q-.09-.24-.18,0l-1,2.82s0,.08,0,.08Z" transform="translate(-1.09 -1.4)"/><path class="cls-11" d="M198.61,38.83c0,1.52,0,2.14.21,2.32s.59.24,1.42.24c.56,0,1,0,1.29-.31a1.26,1.26,0,0,0,.25-.58c0-.08.05-.14.11-.14s.08,0,.08.16a7.12,7.12,0,0,1-.16,1c-.07.24-.11.28-.68.28-.77,0-1.36,0-1.86,0l-1.16,0h-.44l-.62,0c-.11,0-.17,0-.17-.09a.08.08,0,0,1,.09-.08,2,2,0,0,0,.33,0c.2-.05.23-.25.27-.55a18.22,18.22,0,0,0,.07-2.23V37c0-1.6,0-1.89,0-2.22s-.08-.52-.44-.57l-.36,0a.1.1,0,0,1-.08-.09c0-.06,0-.08.16-.08l1.22,0,1.17,0c.11,0,.17,0,.17.08a.08.08,0,0,1-.08.07l-.35,0c-.32.06-.38.22-.4.58s0,.62,0,2.22Z" transform="translate(-1.09 -1.4)"/><path class="cls-11" d="M211.4,40.46c.62-1.38,2-4.9,2.25-5.64a1.59,1.59,0,0,0,.09-.39.22.22,0,0,0-.14-.22,1.5,1.5,0,0,0-.37,0c-.06,0-.12,0-.12-.09s.08-.08.25-.08l1,0,.84,0c.11,0,.17,0,.17.07a.11.11,0,0,1-.12.1,1,1,0,0,0-.51.12c-.15.09-.32.24-.6.94-.12.29-.64,1.53-1.19,2.79-.65,1.51-1.12,2.62-1.37,3.13s-.35.78-.46.78-.19-.13-.4-.63L208.14,35c-.24-.58-.39-.69-.74-.78a2.47,2.47,0,0,0-.41,0,.1.1,0,0,1-.09-.1c0-.06.11-.07.28-.07l1.25,0,1,0c.19,0,.29,0,.29.07a.1.1,0,0,1-.11.1,1.61,1.61,0,0,0-.39,0,.17.17,0,0,0-.12.19,4.33,4.33,0,0,0,.29.86Z" transform="translate(-1.09 -1.4)"/><path class="cls-11" d="M218,38.81c0,1,0,1.81,0,2.23s.07.5.38.55.39,0,.49,0a.07.07,0,0,1,.08.08c0,.05,0,.09-.16.09-.6,0-1.29,0-1.34,0s-.73,0-1.05,0c-.11,0-.17,0-.17-.09a.07.07,0,0,1,.08-.08,1.88,1.88,0,0,0,.33,0c.2-.05.24-.25.28-.55s.06-1.24.06-2.23V37c0-1.6,0-1.89,0-2.22s-.11-.51-.34-.56l-.32,0a.1.1,0,0,1-.09-.09c0-.06,0-.08.17-.08l1.08,0,1.07,0c.12,0,.17,0,.17.08a.11.11,0,0,1-.09.09,1.38,1.38,0,0,0-.26,0c-.3.06-.36.21-.38.57s0,.62,0,2.22Z" transform="translate(-1.09 -1.4)"/><path class="cls-11" d="M224.05,40.46c.62-1.38,2-4.9,2.24-5.64a1.71,1.71,0,0,0,.1-.39.23.23,0,0,0-.15-.22,1.46,1.46,0,0,0-.36,0c-.06,0-.12,0-.12-.09s.07-.08.24-.08l1,0,.84,0c.11,0,.17,0,.17.07s0,.1-.12.1a1,1,0,0,0-.51.12c-.14.09-.31.24-.59.94-.13.29-.65,1.53-1.19,2.79-.66,1.51-1.13,2.62-1.37,3.13s-.35.78-.46.78-.2-.13-.4-.63L220.79,35c-.25-.58-.39-.69-.74-.78a2.57,2.57,0,0,0-.42,0c-.06,0-.08-.06-.08-.1s.11-.07.28-.07l1.25,0,1,0c.2,0,.29,0,.29.07a.1.1,0,0,1-.11.1,1.48,1.48,0,0,0-.38,0,.18.18,0,0,0-.13.19,4.63,4.63,0,0,0,.3.86Z" transform="translate(-1.09 -1.4)"/><path class="cls-11" d="M231.11,33.86c2.4,0,4.22,1.47,4.22,3.87a4.13,4.13,0,0,1-4.28,4.21,4,4,0,0,1-4.17-4A4.09,4.09,0,0,1,231.11,33.86Zm.25,7.65c.95,0,2.88-.51,2.88-3.49,0-2.47-1.5-3.77-3.19-3.77S228,35.36,228,37.61,229.43,41.51,231.36,41.51Z" transform="translate(-1.09 -1.4)"/></svg>