<?xml version="1.0" encoding="utf-8"?>
<!-- Generator: Adobe Illustrator 21.1.0, SVG Export Plug-In . SVG Version: 6.00 Build 0)  -->
<svg version="1.1" id="Layer_1" xmlns="http://www.w3.org/2000/svg" xmlns:xlink="http://www.w3.org/1999/xlink" x="0px" y="0px"
	 viewBox="0 0 250 55.1" style="enable-background:new 0 0 250 55.1;" xml:space="preserve">
<style type="text/css">
	.st0{fill:#07477C;}
	.st1{fill:url(#SVGID_1_);}
	.st2{fill:url(#SVGID_2_);}
	.st3{fill:url(#SVGID_3_);}
	.st4{fill:url(#SVGID_4_);}
	.st5{fill:url(#SVGID_5_);}
	.st6{fill:url(#SVGID_6_);}
	.st7{fill:url(#SVGID_7_);}
	.st8{fill:url(#SVGID_8_);}
</style>
<g>
	<path class="st0" d="M13.4,16.4l-1.3-0.8c-4-3.2-5.2-4.7-5.2-7.2c0-2.9,2-4.7,5-4.7c3.5,0,4.9,1.5,5.2,2.2c0.2,0.3,0.5,1.5,0.5,2
		c0,0.3,0.2,1,0.8,1c0.7,0,0.7-1,0.7-1.5c0-2.3,0.2-3.7,0.2-4.4c0-0.2,0-0.3,0-0.3c0-0.3-0.2-0.7-0.8-0.7c-0.3,0-0.7,0-1.5-0.2
		c-1.3-0.3-2.7-0.5-4.2-0.5C7,1.4,3.2,4.7,3.2,9.7c0,3,1,5.9,5.9,9.9l2,1.7c3.9,3.2,4.9,4.9,4.9,7.5s-2,5.4-5.9,5.4
		c-1.5,0-5.4-0.3-6-4.2c-0.2-0.5-0.2-1.2-0.2-1.5c0-0.2,0-0.8-0.7-0.8c-0.7,0-0.8,0.8-0.8,1.2v0.5c0,0.8-0.2,2.3-0.2,4.2
		c0,1.2,0,1.7,0.8,2l0,0c1.7,0.8,3.7,1.3,6,1.3c2.7,0,5-0.7,6.9-2c2.9-2,3.9-5.4,3.9-7.7C20,23.8,19,20.8,13.4,16.4z"/>
	
		<linearGradient id="SVGID_1_" gradientUnits="userSpaceOnUse" x1="28.9352" y1="626.2408" x2="28.9352" y2="596.9701" gradientTransform="matrix(1 0 0 1 0 -590)">
		<stop  offset="0" style="stop-color:#00588B"/>
		<stop  offset="1" style="stop-color:#132A63"/>
	</linearGradient>
	<path class="st1" d="M33.7,34.7c-0.2,0-1,0-1.5-0.2c-0.8-0.2-1-0.5-1.2-1.7c-0.2-1.3-0.2-3.7-0.2-6.5v-8.1c0-1.8,0-3.2,0-4.2
		c0-2.2,0-3,0-3.9C31,8.9,31,8.6,32,8.6c0.2,0,0.3,0,0.3,0c0.2,0,0.3,0,0.3,0c0.5,0,0.8-0.3,0.8-0.7c0-0.3-0.2-0.7-1.2-0.7
		c-0.8,0-2.5,0-3.4,0.2c-0.3,0-0.5,0-0.7,0c0,0-0.2,0-0.5,0c-0.8,0-2.5-0.2-3.5-0.2c-0.7,0-1.2,0.2-1.2,0.7c0.2,0.2,0.3,0.5,1,0.5
		c0.2,0,0.2,0,0.3,0c0.2,0,0.3,0,0.7,0.2c0.5,0.2,0.8,0.3,1,1.7c0.2,1.2,0.2,2.2,0.2,8.1V25c0,3.4,0,6.4-0.2,8.1
		c-0.2,1-0.2,1.7-0.7,1.7c-0.3,0-0.8,0.2-1,0.2c-0.7,0-1,0.3-1,0.7c0,0.2,0.2,0.7,1.2,0.7s2.7,0,3.5-0.2c0.3,0,0.5,0,0.5,0
		s0.2,0,0.5,0c0.8,0,2.9,0.2,4.5,0.2c1,0,1-0.5,1-0.7C34.6,34.9,33.9,34.7,33.7,34.7z"/>
	
		<linearGradient id="SVGID_2_" gradientUnits="userSpaceOnUse" x1="56.2775" y1="626.2539" x2="56.2775" y2="596.4531" gradientTransform="matrix(1 0 0 1 0 -590)">
		<stop  offset="0" style="stop-color:#00588B"/>
		<stop  offset="1" style="stop-color:#132A63"/>
	</linearGradient>
	<path class="st2" d="M75.3,34.7L75.3,34.7c-0.7,0-1.5-0.2-2.2-0.3c-1.3-0.3-1.7-2.5-1.8-3.5l-2.7-23c0-0.3-0.2-1.5-0.8-1.5
		s-0.8,0.7-1,1L55.9,29.5L44.3,7.4c-0.3-0.5-0.5-1-1-1c-0.7,0-0.8,1-0.8,1.5l-3,24.3c-0.3,2-0.7,2.5-1.3,2.5c-0.5,0-0.5,0-0.8,0
		c-0.7,0-1,0.3-1,0.7c0,0.8,0.8,0.8,1.2,0.8c0.7,0,1.7,0,2.3-0.2c0.5,0,0.8,0,1,0c0.2,0,0.3,0,0.8,0c0.8,0,2,0.2,2.9,0.2
		c0.3,0,1.2,0,1.2-0.8c0-0.2,0-0.7-0.8-0.7c-0.2,0-0.3,0-0.3,0c-0.3,0-0.5,0-0.8-0.2c-0.7-0.2-0.8-0.5-0.8-0.8c0-0.7,0-1,0-1.7
		l1.5-15.4c0.7,1.5,2,4.2,4,8.2l0.3,0.5c0.2,0.2,1.2,2.3,2.2,4.2c1,1.8,2,3.9,2.3,4.5c1,1.7,1.2,2.2,1.7,2.2c0.7,0,0.8-0.3,1.5-1.7
		l9.1-18.3l1.7,17.3c0,0.5,0,0.8,0,0.8c-0.3,0.2-0.7,0.5-0.7,0.8c0,0.7,0.8,0.7,1.7,0.8c1.5,0.2,6.2,0.3,7,0.3c1,0,1.2-0.5,1.2-0.8
		C76.3,35.1,76,34.7,75.3,34.7z"/>
	
		<linearGradient id="SVGID_3_" gradientUnits="userSpaceOnUse" x1="86.807" y1="626.2408" x2="86.807" y2="596.9701" gradientTransform="matrix(1 0 0 1 0 -590)">
		<stop  offset="0" style="stop-color:#00588B"/>
		<stop  offset="1" style="stop-color:#132A63"/>
	</linearGradient>
	<path class="st3" d="M87.2,7.1c-1,0-2.3,0-3.4,0c-0.7,0-1.3,0-1.7,0c0,0-0.3,0-0.7,0c-0.8,0-2.5-0.2-4-0.2c-0.8,0-1,0.5-1,0.8
		c0,0.5,0.3,0.7,0.7,0.7c0.3,0,1,0,1.3,0c1,0.2,1.2,0.7,1.3,1.7c0.2,1.2,0.2,2,0.2,8.1v6.7c0,3.4,0,6.5-0.2,8.1
		c-0.2,1.2-0.3,1.7-0.8,1.7c-0.3,0.2-0.8,0.2-1,0.2c-0.5,0-0.7,0.3-0.7,0.7c0,0.3,0.2,0.8,1,0.8c1,0,3-0.2,3.7-0.2h0.2
		c0,0,0.2,0,0.5,0c0.8,0,2.7,0.2,4.5,0.2c1,0,1-0.7,1-0.8c0-0.3-0.3-0.7-0.7-0.7c-0.3,0-1.2-0.2-1.7-0.2c-0.8-0.2-1-0.7-1.2-1.7
		c-0.2-1.5-0.2-4.7-0.2-8.1V9.6c0-0.2,0-0.3,0-0.3c0.2-0.2,0.7-0.2,1.3-0.2h0.2c0.8,0,3,0,5,2c1.2,1.2,1.8,2.9,1.8,4.9v0.2
		c0,3.5-2.5,5.9-6,5.9c-0.8,0-1.5,0-1.5,0.8c0,0.3,0.3,0.7,0.7,0.7c0.2,0,0.7,0,1,0c5.9,0,10.1-3.7,10.1-8.9c0-2.5-1-4.4-2.2-5.4
		C94.1,8.6,92.3,7.1,87.2,7.1z"/>
	
		<linearGradient id="SVGID_4_" gradientUnits="userSpaceOnUse" x1="108.6818" y1="626.3422" x2="108.6818" y2="596.9869" gradientTransform="matrix(1 0 0 1 0 -590)">
		<stop  offset="0" style="stop-color:#00588B"/>
		<stop  offset="1" style="stop-color:#132A63"/>
	</linearGradient>
	<path class="st4" d="M118.1,29.9c-0.5,0-0.7,0.3-0.8,0.8c-0.2,0.7-0.3,1.5-0.7,2c-0.8,1-2.5,1-4.4,1c-3,0-3.7-0.2-4.4-0.8
		c-0.7-0.7-0.8-4.5-0.8-8.1v-6.7c0-1.8,0-3.2,0-4.2c0-2.3,0-3,0-3.9c0.2-1.3,0.3-1.7,1.2-1.8c0.5,0,0.8-0.2,1.2-0.2
		c0.5,0,0.8-0.3,0.8-0.7c0-0.2-0.2-0.7-1-0.7c-0.7,0-2,0-3,0c-0.7,0-1.3,0-1.5,0h-0.3c-0.8,0-2.9-0.2-4.4-0.2
		c-0.8,0-1.2,0.3-1.2,0.7c0,0.3,0.3,0.7,0.8,0.7c0.3,0,0.8,0,1,0c1.2,0.2,1.3,0.7,1.3,1.8c0.2,1.2,0.2,2.2,0.2,7.9v6.7
		c0,0.7,0,1.3,0,2c0,2.5,0,4.7-0.2,6c-0.2,1.2-0.3,1.7-0.8,1.7c-0.3,0-0.7,0-1,0c-0.7,0-0.8,0.5-0.8,0.7c0,0.3,0.2,0.8,1.2,0.8
		c0.8,0,1.3,0,2,0c0.5,0,1.2,0,1.8,0c2.3,0,4.5,0,6.4,0.2c1.5,0,3,0.2,4.4,0.2c2,0,2.3-0.2,2.7-1.3v-0.2c0.3-1,0.5-3.7,0.5-4
		C118.8,30.2,118.6,29.9,118.1,29.9z"/>
	
		<linearGradient id="SVGID_5_" gradientUnits="userSpaceOnUse" x1="128.4914" y1="626.2408" x2="128.4914" y2="596.9701" gradientTransform="matrix(1 0 0 1 0 -590)">
		<stop  offset="0" style="stop-color:#00588B"/>
		<stop  offset="1" style="stop-color:#132A63"/>
	</linearGradient>
	<path class="st5" d="M140.4,8.9c0.5-0.3,1-0.5,2-0.5c0.5,0,0.8-0.3,0.8-0.7c0-0.2,0-0.7-1-0.7c-0.3,0-1.3,0-2.2,0
		c-0.7,0-1.5,0-1.7,0c-0.3,0-0.7,0-1,0c-0.5,0-1,0-1.7,0c-0.8,0-1,0.5-1,0.7s0.2,0.7,0.8,0.7h0.2c0.5,0,0.5,0.2,0.5,0.2
		c0,0.3-0.2,0.7-1,2.2c-0.2,0.3-0.8,1.3-1.5,2.7c-1.5,2.5-3.5,5.9-4.4,7.4c-0.3-0.5-0.8-1.3-1.3-2.2c-1.8-3-4.9-7.9-5.2-8.6
		l-0.2-0.2c-0.2-0.5-0.5-0.8-0.5-1.2c0-0.2,0-0.2,0.3-0.3c0.2,0,0.8-0.2,0.8-0.8c0-0.2,0-0.7-1-0.7c-1.2,0-2.2,0-2.9,0.2
		c-0.2,0-0.3,0-0.5,0c0,0-0.3,0-0.7,0c-1,0-3-0.2-3.5-0.2c-0.7,0-1,0.3-1,0.7c0.2,0.5,0.5,0.8,1,0.8l0,0c0.8,0,1.3,0.2,1.8,0.5
		c0.5,0.5,1,1,2.2,2.7c1.3,1.8,6.4,10.2,6.7,10.7c0.7,1,0.8,1.8,0.8,3.9v3.2c0,1.3,0,2.5-0.2,3.5c0,0.7-0.2,1.7-0.8,1.7
		c-0.3,0-0.7,0.2-1,0.2c-0.7,0-0.8,0.3-0.8,0.7c0,0.2,0,0.8,1,0.8c1,0,2.9,0,3.7-0.2h0.3c0,0,0.2,0,0.3,0c0.8,0,3,0.2,4.7,0.2
		c0.8,0,1-0.7,1-0.8c0-0.3-0.2-0.7-0.8-0.7c-0.3,0-1,0-1.5-0.2c-1-0.2-1.2-0.7-1.2-1.7c0-1.3-0.2-2.9-0.2-3.5v-3.7
		c0-1,0-1.8,0.3-2.9c0.7-1.5,4.9-8.7,7.4-12.2l0.2-0.2C139.6,9.7,139.7,9.4,140.4,8.9z"/>
	
		<linearGradient id="SVGID_6_" gradientUnits="userSpaceOnUse" x1="146.1046" y1="643.3508" x2="146.1046" y2="592.129" gradientTransform="matrix(1 0 0 1 0 -590)">
		<stop  offset="0" style="stop-color:#00588B"/>
		<stop  offset="1" style="stop-color:#132A63"/>
	</linearGradient>
	<path class="st6" d="M153,2.9c0-0.5-0.3-0.8-1.2-0.8c-1,0-2.5,0-3.5,0.2c-0.3,0-0.7,0-0.7,0s-0.3,0-0.5,0c-1,0-2.9-0.2-4.4-0.2
		c-1,0-1,0.5-1,0.7c0,0.3,0.3,0.7,0.8,0.7c0.3,0,1,0,1.2,0.2c1.2,0.2,1.5,0.7,1.5,2c0.2,1.5,0.2,2.9,0.2,9.6v19.3
		c0,11.4-1.5,13.4-4,16.1c-0.3,0.3-1,0.8-1.5,1.2l0,0c-0.3,0.3-0.7,0.5-0.7,1c0,0.5,0.3,0.7,0.7,0.7c0.2,0,0.3,0,0.5-0.2
		c0.5-0.2,1.2-0.7,1.7-1.2c3.5-2.5,5.5-4.5,6.5-6.9c1.3-3.2,1.3-5.9,1.3-12.9V15.1c0-6.7,0-8.1,0.2-9.4c0.2-1.7,0.5-2,1.2-2.2h0.2
		c0.3,0,0.7,0,0.8,0C152.8,3.5,153,3.2,153,2.9z"/>
	
		<linearGradient id="SVGID_7_" gradientUnits="userSpaceOnUse" x1="167.7436" y1="626.2408" x2="167.7436" y2="596.4861" gradientTransform="matrix(1 0 0 1 0 -590)">
		<stop  offset="0" style="stop-color:#00588B"/>
		<stop  offset="1" style="stop-color:#132A63"/>
	</linearGradient>
	<path class="st7" d="M167.7,6.6c-10.7,0-15.6,8.7-15.6,14.8c0,7.2,4.9,14.9,15.4,14.9c9.2,0,15.8-6.5,15.8-15.4
		C183.3,12.3,177.1,6.6,167.7,6.6z M178.5,21.8c0,11.4-8.1,12.1-9.7,12.1c-7,0-11.6-5.4-11.6-13.8c0-7.2,3.9-11.6,10.4-11.6
		C172.8,8.7,178.5,12.8,178.5,21.8z"/>
	
		<linearGradient id="SVGID_8_" gradientUnits="userSpaceOnUse" x1="193.8279" y1="625.8345" x2="193.8279" y2="596.73" gradientTransform="matrix(1 0 0 1 0 -590)">
		<stop  offset="0" style="stop-color:#00588B"/>
		<stop  offset="1" style="stop-color:#132A63"/>
	</linearGradient>
	<path class="st8" d="M205,29.5c-0.3,0-0.7,0.3-0.8,1c-0.3,1.7-0.7,2.2-1.7,2.5c-0.8,0.3-2.2,0.3-2.9,0.2h-0.3
		c-2.3,0-8.1-0.2-8.6-0.3c-0.7-0.3-0.8-0.8-1-2.5c0-0.5,0-2.7,0-4.2c0-0.7,0-1.3,0-1.7v-3c1.3,0,9.7,0.2,10.7,0.2
		c1.5,0.2,1.5,0.5,1.7,1c0,0.3,0.2,0.7,0.2,1c0,0.8,0.5,1,0.7,1c0.3,0,0.7-0.3,0.7-0.8c0-0.2,0-0.3,0-0.7c0-0.5,0-1.2,0.2-2
		c0-0.7,0.2-1.3,0.2-1.7c0-0.3,0-0.5,0-0.7c0-0.5-0.3-0.7-0.7-0.7c-0.5,0-0.7,0.3-0.8,0.5c-0.2,0.3-0.7,0.5-1.7,0.5
		c-0.8,0-9.7,0.2-11.2,0.2l0,0V9.6c1.5,0,9.9,0,10.4,0.2c2.2,0.2,2.3,0.5,2.5,1c0.2,0.3,0.2,0.7,0.3,1.2c0,0.8,0.7,0.8,0.7,0.8
		c0.2,0,0.7-0.2,0.7-1c0-0.7,0-1.2,0.2-1.8V9.4c0-0.7,0.2-1.2,0.2-1.5c0-0.2,0.2-0.3,0.2-0.5c0-0.5-0.3-0.7-0.7-0.7
		c-0.2,0-0.3,0-0.5,0.2h-0.2c-0.3,0.2-0.7,0.2-1.5,0.2c-0.7,0-9.7,0-14.4,0c-1.3,0-2.3,0-3-0.2c-0.7,0-1,0-1.5,0c-0.8,0-1,0.5-1,0.8
		c0,0.5,0.5,0.7,1,0.7c0.3,0,0.7,0,1,0c1,0.2,1.2,0.7,1.3,1.7c0.2,1.2,0.2,2.2,0.2,7.9v6.5c0,3.4,0,5-0.2,6.5c-0.2,2.9-0.7,3-1,3
		s-0.5,0.2-0.7,0.2c-0.5,0-0.8,0.3-0.8,0.7c0,0.2,0.2,0.7,1,0.7c0.5,0,1,0,1.5,0c0.5,0,0.8,0,1.3,0c1.2,0,2.5,0,3.9,0.2h1.3
		c0.7,0,2.2,0,4,0c2.5,0,5.5,0,7.2,0c1.3,0,2,0,2.3-1.3c0.2-0.7,0.5-3.5,0.5-3.9C205.7,30.4,205.7,29.5,205,29.5z"/>
</g>
<g>
	<path class="st0" d="M5.2,40.6v4.3h2.4c0.6,0,1-0.1,1.2-0.3c0.3-0.2,0.4-0.7,0.5-1.3h0.3v3.8H9.3c-0.1-0.5-0.1-0.9-0.2-1
		c-0.1-0.2-0.3-0.3-0.5-0.4c-0.2-0.1-0.6-0.2-1-0.2H5.2v3.6c0,0.5,0,0.8,0.1,0.9c0,0.1,0.1,0.2,0.2,0.2c0.1,0.1,0.3,0.1,0.6,0.1h1.8
		c0.6,0,1.1,0,1.3-0.1c0.3-0.1,0.5-0.3,0.8-0.5c0.3-0.3,0.7-0.8,1-1.5h0.3l-0.9,2.7H2.1v-0.3h0.4c0.3,0,0.5-0.1,0.7-0.2
		c0.2-0.1,0.3-0.2,0.3-0.4s0.1-0.5,0.1-1v-7.1c0-0.7-0.1-1.1-0.2-1.3c-0.2-0.2-0.5-0.3-1-0.3H2.1V40h8.4l0.1,2.4h-0.3
		c-0.1-0.6-0.2-1-0.4-1.2s-0.3-0.4-0.6-0.5c-0.2-0.1-0.6-0.1-1.1-0.1H5.2z"/>
	<path class="st0" d="M18.6,43.6V48c0,0.8,0,1.4,0.1,1.6c0,0.2,0.1,0.3,0.2,0.4c0.1,0.1,0.2,0.1,0.3,0.1c0.2,0,0.4,0,0.6-0.1
		l0.1,0.3l-2.2,0.9h-0.4v-1.6c-0.6,0.7-1.1,1.1-1.4,1.3c-0.3,0.2-0.7,0.3-1,0.3c-0.4,0-0.8-0.1-1.1-0.4c-0.3-0.2-0.5-0.5-0.6-0.9
		c-0.1-0.4-0.2-0.9-0.2-1.6V45c0-0.3,0-0.6-0.1-0.7c-0.1-0.1-0.2-0.2-0.3-0.3c-0.1-0.1-0.4-0.1-0.8-0.1v-0.3h2.6v4.9
		c0,0.7,0.1,1.1,0.4,1.3c0.2,0.2,0.5,0.3,0.9,0.3c0.2,0,0.5-0.1,0.8-0.2c0.3-0.1,0.6-0.4,1-0.8v-4.2c0-0.4-0.1-0.7-0.2-0.8
		c-0.2-0.1-0.5-0.2-0.9-0.2v-0.3H18.6z"/>
	<path class="st0" d="M22.3,43.3V45c0.6-1.1,1.2-1.6,1.9-1.6c0.3,0,0.5,0.1,0.7,0.3c0.2,0.2,0.3,0.4,0.3,0.6c0,0.2-0.1,0.4-0.2,0.5
		c-0.1,0.1-0.3,0.2-0.5,0.2c-0.2,0-0.4-0.1-0.6-0.3c-0.2-0.2-0.4-0.3-0.5-0.3c-0.1,0-0.2,0.1-0.3,0.2c-0.2,0.2-0.5,0.6-0.7,1.1v3.5
		c0,0.4,0.1,0.7,0.2,0.9c0.1,0.1,0.2,0.3,0.4,0.4c0.2,0.1,0.4,0.1,0.8,0.1v0.3h-3.8v-0.3c0.4,0,0.7-0.1,0.8-0.2
		c0.1-0.1,0.2-0.2,0.3-0.4c0-0.1,0-0.3,0-0.8v-2.8c0-0.9,0-1.4-0.1-1.5c0-0.2-0.1-0.3-0.2-0.4c-0.1-0.1-0.2-0.1-0.3-0.1
		c-0.2,0-0.4,0-0.6,0.1l-0.1-0.3l2.2-0.9H22.3z"/>
	<path class="st0" d="M29.1,43.3c1.1,0,2,0.4,2.7,1.3c0.6,0.7,0.9,1.5,0.9,2.5c0,0.7-0.2,1.3-0.5,2c-0.3,0.7-0.7,1.2-1.3,1.5
		c-0.6,0.3-1.2,0.5-1.8,0.5c-1.1,0-2-0.4-2.6-1.3c-0.5-0.7-0.8-1.6-0.8-2.5c0-0.7,0.2-1.3,0.5-2c0.3-0.7,0.8-1.2,1.3-1.5
		C27.9,43.5,28.5,43.3,29.1,43.3z M28.8,43.9c-0.3,0-0.6,0.1-0.9,0.3c-0.3,0.2-0.5,0.5-0.7,0.9c-0.2,0.4-0.3,1-0.3,1.6
		c0,1.1,0.2,2,0.6,2.8c0.4,0.8,1,1.2,1.7,1.2c0.5,0,0.9-0.2,1.3-0.6c0.3-0.4,0.5-1.2,0.5-2.2c0-1.3-0.3-2.3-0.8-3.1
		C29.9,44.1,29.4,43.9,28.8,43.9z"/>
	<path class="st0" d="M33,44.3l2.3-0.9h0.3v1.7c0.4-0.6,0.8-1.1,1.1-1.4c0.4-0.3,0.8-0.4,1.2-0.4c0.7,0,1.4,0.3,1.8,0.9
		c0.6,0.7,0.9,1.6,0.9,2.8c0,1.3-0.4,2.3-1.1,3.1c-0.6,0.7-1.4,1-2.3,1c-0.4,0-0.7-0.1-1-0.2c-0.2-0.1-0.5-0.2-0.7-0.5v2.2
		c0,0.5,0,0.8,0.1,1c0.1,0.1,0.2,0.2,0.3,0.3c0.2,0.1,0.4,0.1,0.8,0.1v0.3h-3.8v-0.3h0.2c0.3,0,0.5-0.1,0.8-0.2
		c0.1-0.1,0.2-0.2,0.2-0.3c0.1-0.1,0.1-0.5,0.1-1v-6.9c0-0.5,0-0.8-0.1-0.9c0-0.1-0.1-0.2-0.2-0.3c-0.1-0.1-0.2-0.1-0.4-0.1
		c-0.1,0-0.3,0-0.5,0.1L33,44.3z M35.6,45.6v2.7c0,0.6,0,1,0.1,1.2c0.1,0.3,0.3,0.6,0.5,0.8c0.3,0.2,0.7,0.4,1.1,0.4
		c0.5,0,1-0.2,1.3-0.6c0.4-0.5,0.6-1.3,0.6-2.3c0-1.1-0.2-2-0.7-2.6c-0.3-0.4-0.7-0.6-1.2-0.6c-0.3,0-0.5,0.1-0.8,0.2
		C36.3,44.8,36,45.1,35.6,45.6z"/>
	<path class="st0" d="M42.8,46.3c0,1.1,0.3,1.9,0.8,2.6c0.5,0.6,1.2,0.9,1.9,0.9c0.5,0,0.9-0.1,1.3-0.4c0.4-0.3,0.7-0.7,0.9-1.4
		l0.2,0.2c-0.1,0.7-0.4,1.4-1,2c-0.5,0.6-1.2,0.9-2,0.9c-0.9,0-1.6-0.3-2.3-1c-0.6-0.7-0.9-1.6-0.9-2.8c0-1.3,0.3-2.2,1-2.9
		c0.6-0.7,1.5-1.1,2.4-1.1c0.8,0,1.5,0.3,2,0.8c0.5,0.5,0.8,1.3,0.8,2.2H42.8z M42.8,45.9h3.4c0-0.5-0.1-0.8-0.2-1
		c-0.1-0.3-0.3-0.5-0.6-0.7c-0.3-0.2-0.5-0.3-0.8-0.3c-0.4,0-0.8,0.2-1.2,0.5C43,44.8,42.8,45.2,42.8,45.9z"/>
	<path class="st0" d="M52.8,49.8c-0.8,0.6-1.2,0.9-1.4,1C51.1,51,50.8,51,50.5,51c-0.5,0-0.9-0.2-1.3-0.5c-0.3-0.3-0.5-0.8-0.5-1.4
		c0-0.4,0.1-0.7,0.2-0.9c0.2-0.4,0.6-0.7,1.1-1c0.5-0.3,1.4-0.7,2.7-1.2v-0.3c0-0.7-0.1-1.2-0.3-1.5c-0.2-0.3-0.6-0.4-1-0.4
		c-0.3,0-0.6,0.1-0.8,0.3c-0.2,0.2-0.3,0.4-0.3,0.6l0,0.5c0,0.2-0.1,0.4-0.2,0.6c-0.1,0.1-0.3,0.2-0.5,0.2c-0.2,0-0.4-0.1-0.5-0.2
		c-0.1-0.1-0.2-0.3-0.2-0.6c0-0.5,0.2-0.9,0.7-1.3c0.5-0.4,1.1-0.6,2-0.6c0.7,0,1.2,0.1,1.6,0.3c0.3,0.2,0.5,0.4,0.7,0.8
		c0.1,0.2,0.1,0.7,0.1,1.4v2.5c0,0.7,0,1.1,0,1.3c0,0.2,0.1,0.3,0.1,0.3c0.1,0.1,0.1,0.1,0.2,0.1c0.1,0,0.2,0,0.2-0.1
		c0.1-0.1,0.3-0.3,0.6-0.6v0.4c-0.6,0.8-1.2,1.2-1.7,1.2c-0.3,0-0.5-0.1-0.6-0.3C52.9,50.6,52.8,50.3,52.8,49.8z M52.8,49.3v-2.8
		c-0.8,0.3-1.3,0.5-1.6,0.7c-0.4,0.2-0.7,0.5-0.9,0.7s-0.3,0.5-0.3,0.8c0,0.4,0.1,0.7,0.3,1c0.2,0.3,0.5,0.4,0.8,0.4
		C51.6,50.1,52.2,49.8,52.8,49.3z"/>
	<path class="st0" d="M57.9,44.9c0.9-1,1.7-1.6,2.5-1.6c0.4,0,0.7,0.1,1,0.3c0.3,0.2,0.5,0.5,0.7,1c0.1,0.3,0.2,0.8,0.2,1.5v3.1
		c0,0.5,0,0.8,0.1,0.9c0.1,0.1,0.2,0.2,0.3,0.3c0.1,0.1,0.4,0.1,0.7,0.1v0.3h-3.6v-0.3h0.2c0.3,0,0.6-0.1,0.7-0.2
		c0.1-0.1,0.2-0.3,0.3-0.5c0-0.1,0-0.3,0-0.8v-3c0-0.7-0.1-1.2-0.3-1.5c-0.2-0.3-0.5-0.5-0.9-0.5c-0.6,0-1.3,0.3-1.9,1v3.9
		c0,0.5,0,0.8,0.1,0.9c0.1,0.2,0.2,0.3,0.3,0.3c0.1,0.1,0.4,0.1,0.8,0.1v0.3h-3.6v-0.3h0.2c0.4,0,0.6-0.1,0.8-0.3
		c0.1-0.2,0.2-0.6,0.2-1.1v-2.7c0-0.9,0-1.4-0.1-1.6c0-0.2-0.1-0.3-0.2-0.4c-0.1-0.1-0.2-0.1-0.3-0.1c-0.1,0-0.3,0-0.5,0.1l-0.1-0.3
		l2.2-0.9h0.3V44.9z"/>
	<path class="st0" d="M68.9,40.3V40h4.7v0.3h-0.4c-0.4,0-0.8,0.1-1,0.4C72,40.9,72,41.3,72,42v5.3c0,0.8-0.1,1.5-0.3,2
		c-0.2,0.5-0.5,0.9-0.9,1.3s-1,0.6-1.6,0.6c-0.5,0-0.9-0.1-1.2-0.4c-0.3-0.2-0.4-0.5-0.4-0.9c0-0.3,0.1-0.5,0.2-0.6
		c0.2-0.2,0.4-0.2,0.6-0.2c0.2,0,0.3,0.1,0.5,0.2c0.1,0.1,0.3,0.4,0.5,0.9c0.1,0.3,0.3,0.4,0.5,0.4c0.1,0,0.3-0.1,0.4-0.3
		c0.1-0.2,0.2-0.5,0.2-0.9V42c0-0.5,0-0.9-0.1-1.1c-0.1-0.1-0.2-0.2-0.3-0.3c-0.2-0.1-0.5-0.2-0.7-0.2H68.9z"/>
	<path class="st0" d="M77.6,43.3c1.1,0,2,0.4,2.7,1.3c0.6,0.7,0.9,1.5,0.9,2.5c0,0.7-0.2,1.3-0.5,2c-0.3,0.7-0.7,1.2-1.3,1.5
		c-0.6,0.3-1.2,0.5-1.8,0.5c-1.1,0-2-0.4-2.6-1.3c-0.5-0.7-0.8-1.6-0.8-2.5c0-0.7,0.2-1.3,0.5-2c0.3-0.7,0.8-1.2,1.3-1.5
		C76.4,43.5,77,43.3,77.6,43.3z M77.3,43.9c-0.3,0-0.6,0.1-0.9,0.3c-0.3,0.2-0.5,0.5-0.7,0.9c-0.2,0.4-0.3,1-0.3,1.6
		c0,1.1,0.2,2,0.6,2.8c0.4,0.8,1,1.2,1.7,1.2c0.5,0,0.9-0.2,1.3-0.6c0.3-0.4,0.5-1.2,0.5-2.2c0-1.3-0.3-2.3-0.8-3.1
		C78.4,44.1,77.9,43.9,77.3,43.9z"/>
	<path class="st0" d="M83.2,46.3c0,1.1,0.3,1.9,0.8,2.6c0.5,0.6,1.2,0.9,1.9,0.9c0.5,0,0.9-0.1,1.3-0.4c0.4-0.3,0.7-0.7,0.9-1.4
		l0.2,0.2c-0.1,0.7-0.4,1.4-1,2c-0.5,0.6-1.2,0.9-2,0.9c-0.9,0-1.6-0.3-2.3-1c-0.6-0.7-0.9-1.6-0.9-2.8c0-1.3,0.3-2.2,1-2.9
		c0.6-0.7,1.5-1.1,2.4-1.1c0.8,0,1.5,0.3,2,0.8c0.5,0.5,0.8,1.3,0.8,2.2H83.2z M83.2,45.9h3.4c0-0.5-0.1-0.8-0.2-1
		c-0.1-0.3-0.3-0.5-0.6-0.7c-0.3-0.2-0.5-0.3-0.8-0.3c-0.4,0-0.8,0.2-1.2,0.5S83.3,45.2,83.2,45.9z"/>
	<path class="st0" d="M102.4,39.8l0.2,3.7h-0.2c-0.3-1.1-0.8-1.9-1.4-2.4c-0.6-0.5-1.4-0.7-2.2-0.7c-0.7,0-1.4,0.2-2,0.5
		c-0.6,0.4-1,0.9-1.4,1.7c-0.3,0.8-0.5,1.8-0.5,3c0,1,0.2,1.8,0.5,2.6c0.3,0.7,0.8,1.3,1.4,1.7c0.6,0.4,1.4,0.6,2.2,0.6
		c0.7,0,1.3-0.2,1.9-0.5c0.5-0.3,1.1-0.9,1.8-1.8l0.2,0.2c-0.5,1-1.2,1.7-1.9,2.1c-0.7,0.4-1.6,0.7-2.6,0.7c-1.8,0-3.2-0.7-4.2-2
		c-0.7-1-1.1-2.2-1.1-3.5c0-1.1,0.2-2.1,0.7-3c0.5-0.9,1.2-1.6,2-2.1c0.9-0.5,1.8-0.7,2.8-0.7c0.8,0,1.6,0.2,2.3,0.6
		c0.2,0.1,0.4,0.2,0.5,0.2c0.1,0,0.3,0,0.4-0.2c0.1-0.1,0.2-0.3,0.3-0.6H102.4z"/>
	<path class="st0" d="M107.4,43.3c1.1,0,2,0.4,2.7,1.3c0.6,0.7,0.9,1.5,0.9,2.5c0,0.7-0.2,1.3-0.5,2c-0.3,0.7-0.7,1.2-1.3,1.5
		c-0.6,0.3-1.2,0.5-1.8,0.5c-1.1,0-2-0.4-2.6-1.3c-0.5-0.7-0.8-1.6-0.8-2.5c0-0.7,0.2-1.3,0.5-2c0.3-0.7,0.8-1.2,1.3-1.5
		C106.2,43.5,106.8,43.3,107.4,43.3z M107.2,43.9c-0.3,0-0.6,0.1-0.9,0.3c-0.3,0.2-0.5,0.5-0.7,0.9c-0.2,0.4-0.3,1-0.3,1.6
		c0,1.1,0.2,2,0.6,2.8c0.4,0.8,1,1.2,1.7,1.2c0.5,0,0.9-0.2,1.3-0.6c0.3-0.4,0.5-1.2,0.5-2.2c0-1.3-0.3-2.3-0.8-3.1
		C108.2,44.1,107.8,43.9,107.2,43.9z"/>
	<path class="st0" d="M118.1,48.1c-0.2,1-0.6,1.7-1.2,2.2c-0.6,0.5-1.2,0.8-1.9,0.8c-0.8,0-1.6-0.3-2.2-1c-0.6-0.7-0.9-1.6-0.9-2.8
		c0-1.2,0.3-2.1,1-2.8c0.7-0.7,1.5-1.1,2.5-1.1c0.7,0,1.3,0.2,1.8,0.6c0.5,0.4,0.7,0.8,0.7,1.2c0,0.2-0.1,0.4-0.2,0.5
		s-0.3,0.2-0.5,0.2c-0.3,0-0.6-0.1-0.7-0.3c-0.1-0.1-0.2-0.3-0.2-0.6c0-0.3-0.1-0.6-0.3-0.7c-0.2-0.2-0.4-0.2-0.8-0.2
		c-0.5,0-1,0.2-1.3,0.6c-0.4,0.5-0.6,1.2-0.6,2.1c0,0.9,0.2,1.6,0.6,2.3c0.4,0.7,1,1,1.7,1c0.5,0,1-0.2,1.4-0.5
		c0.3-0.2,0.6-0.7,0.9-1.3L118.1,48.1z"/>
	<path class="st0" d="M121.2,39.5v7.3l1.9-1.7c0.4-0.4,0.6-0.6,0.7-0.7c0-0.1,0.1-0.1,0.1-0.2c0-0.1,0-0.2-0.1-0.3
		c-0.1-0.1-0.2-0.1-0.4-0.1v-0.3h3.2v0.3c-0.4,0-0.8,0.1-1.1,0.2c-0.3,0.1-0.6,0.3-1,0.7l-1.9,1.7l1.9,2.4c0.5,0.7,0.9,1.1,1.1,1.2
		c0.3,0.3,0.5,0.4,0.7,0.5c0.1,0.1,0.4,0.1,0.7,0.1v0.3h-3.6v-0.3c0.2,0,0.3,0,0.4-0.1c0.1-0.1,0.1-0.1,0.1-0.2
		c0-0.1-0.1-0.3-0.3-0.6l-2.2-2.9v2.4c0,0.5,0,0.8,0.1,0.9c0.1,0.1,0.2,0.3,0.3,0.3c0.1,0.1,0.4,0.1,0.8,0.1v0.3h-3.7v-0.3
		c0.4,0,0.7,0,0.8-0.1c0.1-0.1,0.2-0.1,0.3-0.3c0.1-0.2,0.1-0.5,0.1-0.9v-6.7c0-0.8,0-1.4-0.1-1.6c0-0.2-0.1-0.3-0.2-0.4
		c-0.1-0.1-0.2-0.1-0.3-0.1c-0.1,0-0.3,0-0.5,0.1l-0.1-0.3l2.2-0.9H121.2z"/>
	<path class="st0" d="M128.3,46.3c0,1.1,0.3,1.9,0.8,2.6c0.5,0.6,1.2,0.9,1.9,0.9c0.5,0,0.9-0.1,1.3-0.4c0.4-0.3,0.7-0.7,0.9-1.4
		l0.2,0.2c-0.1,0.7-0.4,1.4-1,2c-0.5,0.6-1.2,0.9-2,0.9c-0.9,0-1.6-0.3-2.3-1c-0.6-0.7-0.9-1.6-0.9-2.8c0-1.3,0.3-2.2,1-2.9
		c0.6-0.7,1.5-1.1,2.4-1.1c0.8,0,1.5,0.3,2,0.8c0.5,0.5,0.8,1.3,0.8,2.2H128.3z M128.3,45.9h3.4c0-0.5-0.1-0.8-0.2-1
		c-0.1-0.3-0.3-0.5-0.6-0.7c-0.3-0.2-0.5-0.3-0.8-0.3c-0.4,0-0.8,0.2-1.2,0.5S128.3,45.2,128.3,45.9z"/>
	<path class="st0" d="M136.3,43.3V45c0.6-1.1,1.2-1.6,1.9-1.6c0.3,0,0.5,0.1,0.7,0.3c0.2,0.2,0.3,0.4,0.3,0.6c0,0.2-0.1,0.4-0.2,0.5
		c-0.1,0.1-0.3,0.2-0.5,0.2c-0.2,0-0.4-0.1-0.6-0.3c-0.2-0.2-0.4-0.3-0.5-0.3c-0.1,0-0.2,0.1-0.3,0.2c-0.2,0.2-0.5,0.6-0.7,1.1v3.5
		c0,0.4,0.1,0.7,0.2,0.9c0.1,0.1,0.2,0.3,0.4,0.4c0.2,0.1,0.4,0.1,0.8,0.1v0.3h-3.8v-0.3c0.4,0,0.7-0.1,0.8-0.2
		c0.1-0.1,0.2-0.2,0.3-0.4c0-0.1,0-0.3,0-0.8v-2.8c0-0.9,0-1.4-0.1-1.5c0-0.2-0.1-0.3-0.2-0.4c-0.1-0.1-0.2-0.1-0.3-0.1
		c-0.2,0-0.4,0-0.6,0.1l-0.1-0.3l2.2-0.9H136.3z"/>
	<path class="st0" d="M160.4,40l0.1,2.5h-0.3c-0.1-0.4-0.1-0.8-0.2-1c-0.2-0.3-0.4-0.5-0.7-0.7c-0.3-0.1-0.6-0.2-1.1-0.2h-1.5V49
		c0,0.7,0.1,1.1,0.2,1.2c0.2,0.2,0.5,0.3,0.9,0.3h0.4v0.3h-4.6v-0.3h0.4c0.5,0,0.8-0.1,1-0.4c0.1-0.2,0.2-0.6,0.2-1.2v-8.3h-1.3
		c-0.5,0-0.9,0-1.1,0.1c-0.3,0.1-0.5,0.3-0.7,0.6c-0.2,0.3-0.3,0.7-0.4,1.2h-0.3l0.1-2.5H160.4z"/>
	<path class="st0" d="M163,43.3V45c0.6-1.1,1.2-1.6,1.9-1.6c0.3,0,0.5,0.1,0.7,0.3c0.2,0.2,0.3,0.4,0.3,0.6c0,0.2-0.1,0.4-0.2,0.5
		c-0.1,0.1-0.3,0.2-0.5,0.2c-0.2,0-0.4-0.1-0.6-0.3c-0.2-0.2-0.4-0.3-0.5-0.3c-0.1,0-0.2,0.1-0.3,0.2c-0.2,0.2-0.5,0.6-0.7,1.1v3.5
		c0,0.4,0.1,0.7,0.2,0.9c0.1,0.1,0.2,0.3,0.4,0.4c0.2,0.1,0.4,0.1,0.8,0.1v0.3h-3.8v-0.3c0.4,0,0.7-0.1,0.8-0.2
		c0.1-0.1,0.2-0.2,0.3-0.4c0-0.1,0-0.3,0-0.8v-2.8c0-0.9,0-1.4-0.1-1.5c0-0.2-0.1-0.3-0.2-0.4c-0.1-0.1-0.2-0.1-0.3-0.1
		c-0.2,0-0.4,0-0.6,0.1l-0.1-0.3l2.2-0.9H163z"/>
	<path class="st0" d="M168.9,43.3v5.9c0,0.5,0,0.8,0.1,0.9c0.1,0.2,0.2,0.3,0.3,0.3c0.1,0.1,0.4,0.1,0.7,0.1v0.3h-3.6v-0.3
		c0.4,0,0.6,0,0.7-0.1c0.1-0.1,0.2-0.2,0.3-0.3c0.1-0.2,0.1-0.5,0.1-0.9v-2.8c0-0.8,0-1.3-0.1-1.5c0-0.2-0.1-0.3-0.2-0.4
		c-0.1-0.1-0.2-0.1-0.3-0.1c-0.1,0-0.3,0-0.5,0.1l-0.1-0.3l2.2-0.9H168.9z M168.2,39.5c0.2,0,0.4,0.1,0.6,0.2
		c0.2,0.2,0.2,0.3,0.2,0.6c0,0.2-0.1,0.4-0.2,0.6c-0.2,0.2-0.3,0.2-0.6,0.2c-0.2,0-0.4-0.1-0.6-0.2c-0.2-0.2-0.2-0.4-0.2-0.6
		c0-0.2,0.1-0.4,0.2-0.6C167.8,39.6,168,39.5,168.2,39.5z"/>
	<path class="st0" d="M172.9,44.8c0.7-1,1.5-1.5,2.3-1.5c0.8,0,1.4,0.3,2,1c0.6,0.6,0.8,1.5,0.8,2.6c0,1.3-0.4,2.4-1.3,3.1
		c-0.7,0.7-1.6,1-2.5,1c-0.4,0-0.9-0.1-1.3-0.2c-0.4-0.2-0.9-0.4-1.3-0.7v-7.6c0-0.8,0-1.3-0.1-1.5c0-0.2-0.1-0.3-0.2-0.4
		c-0.1-0.1-0.2-0.1-0.3-0.1c-0.1,0-0.3,0-0.6,0.1l-0.1-0.3l2.2-0.9h0.4V44.8z M172.9,45.3v4.4c0.3,0.3,0.6,0.5,0.8,0.6
		c0.3,0.1,0.6,0.2,0.9,0.2c0.5,0,0.9-0.3,1.4-0.8c0.4-0.5,0.6-1.3,0.6-2.3c0-0.9-0.2-1.7-0.6-2.2c-0.4-0.5-0.9-0.8-1.4-0.8
		c-0.3,0-0.6,0.1-0.8,0.2C173.5,44.8,173.2,45,172.9,45.3z"/>
	<path class="st0" d="M185.5,43.6V48c0,0.8,0,1.4,0.1,1.6c0,0.2,0.1,0.3,0.2,0.4c0.1,0.1,0.2,0.1,0.3,0.1c0.2,0,0.4,0,0.6-0.1
		l0.1,0.3l-2.2,0.9h-0.4v-1.6c-0.6,0.7-1.1,1.1-1.4,1.3c-0.3,0.2-0.7,0.3-1,0.3c-0.4,0-0.8-0.1-1.1-0.4s-0.5-0.5-0.6-0.9
		c-0.1-0.4-0.2-0.9-0.2-1.6V45c0-0.3,0-0.6-0.1-0.7c-0.1-0.1-0.2-0.2-0.3-0.3c-0.1-0.1-0.4-0.1-0.8-0.1v-0.3h2.6v4.9
		c0,0.7,0.1,1.1,0.4,1.3c0.2,0.2,0.5,0.3,0.9,0.3c0.2,0,0.5-0.1,0.8-0.2c0.3-0.1,0.6-0.4,1-0.8v-4.2c0-0.4-0.1-0.7-0.2-0.8
		c-0.2-0.1-0.5-0.2-0.9-0.2v-0.3H185.5z"/>
	<path class="st0" d="M189.4,41.1v2.4h1.7v0.6h-1.7v4.8c0,0.5,0.1,0.8,0.2,1c0.1,0.2,0.3,0.2,0.5,0.2c0.2,0,0.3-0.1,0.5-0.2
		c0.2-0.1,0.3-0.3,0.4-0.5h0.3c-0.2,0.5-0.5,0.9-0.8,1.2c-0.3,0.3-0.7,0.4-1.1,0.4c-0.2,0-0.5-0.1-0.7-0.2c-0.2-0.1-0.4-0.3-0.5-0.6
		c-0.1-0.3-0.2-0.6-0.2-1.2v-4.9h-1.2v-0.3c0.3-0.1,0.6-0.3,0.9-0.6c0.3-0.3,0.6-0.6,0.8-1c0.1-0.2,0.3-0.6,0.5-1.1H189.4z"/>
	<path class="st0" d="M193.1,46.3c0,1.1,0.3,1.9,0.8,2.6c0.5,0.6,1.2,0.9,1.9,0.9c0.5,0,0.9-0.1,1.3-0.4c0.4-0.3,0.7-0.7,0.9-1.4
		l0.2,0.2c-0.1,0.7-0.4,1.4-1,2c-0.5,0.6-1.2,0.9-2,0.9c-0.9,0-1.6-0.3-2.3-1c-0.6-0.7-0.9-1.6-0.9-2.8c0-1.3,0.3-2.2,1-2.9
		c0.6-0.7,1.5-1.1,2.4-1.1c0.8,0,1.5,0.3,2,0.8c0.5,0.5,0.8,1.3,0.8,2.2H193.1z M193.1,45.9h3.4c0-0.5-0.1-0.8-0.2-1
		c-0.1-0.3-0.3-0.5-0.6-0.7c-0.3-0.2-0.5-0.3-0.8-0.3c-0.4,0-0.8,0.2-1.2,0.5C193.3,44.8,193.1,45.2,193.1,45.9z"/>
	<path class="st0" d="M210.3,45.4c0.8,0.2,1.3,0.4,1.7,0.8c0.5,0.5,0.8,1.1,0.8,1.8c0,0.5-0.2,1.1-0.5,1.5c-0.3,0.5-0.8,0.9-1.4,1.1
		c-0.6,0.2-1.5,0.3-2.7,0.3H203v-0.3h0.4c0.5,0,0.8-0.1,1-0.4c0.1-0.2,0.2-0.6,0.2-1.2v-7c0-0.7-0.1-1.1-0.2-1.3
		c-0.2-0.2-0.5-0.4-0.9-0.4H203V40h4.7c0.9,0,1.6,0.1,2.1,0.2c0.8,0.2,1.4,0.5,1.8,1c0.4,0.5,0.6,1,0.6,1.7c0,0.5-0.2,1-0.5,1.5
		C211.4,44.8,210.9,45.1,210.3,45.4z M206.1,44.9c0.2,0,0.4,0.1,0.7,0.1c0.3,0,0.5,0,0.8,0c0.8,0,1.4-0.1,1.8-0.3
		c0.4-0.2,0.7-0.4,0.9-0.8c0.2-0.3,0.3-0.7,0.3-1.1c0-0.6-0.3-1.2-0.8-1.6c-0.5-0.4-1.3-0.7-2.3-0.7c-0.5,0-1,0.1-1.4,0.2V44.9z
		 M206.1,50.1c0.6,0.1,1.2,0.2,1.8,0.2c1,0,1.7-0.2,2.2-0.7c0.5-0.4,0.8-1,0.8-1.6c0-0.4-0.1-0.8-0.3-1.2c-0.2-0.4-0.6-0.7-1.1-0.9
		c-0.5-0.2-1.2-0.3-1.9-0.3c-0.3,0-0.6,0-0.8,0c-0.2,0-0.4,0-0.6,0.1V50.1z"/>
	<path class="st0" d="M218.3,49.8c-0.8,0.6-1.2,0.9-1.4,1c-0.3,0.1-0.6,0.2-0.9,0.2c-0.5,0-0.9-0.2-1.3-0.5
		c-0.3-0.3-0.5-0.8-0.5-1.4c0-0.4,0.1-0.7,0.2-0.9c0.2-0.4,0.6-0.7,1.1-1c0.5-0.3,1.4-0.7,2.7-1.2v-0.3c0-0.7-0.1-1.2-0.3-1.5
		c-0.2-0.3-0.6-0.4-1-0.4c-0.3,0-0.6,0.1-0.8,0.3c-0.2,0.2-0.3,0.4-0.3,0.6l0,0.5c0,0.2-0.1,0.4-0.2,0.6c-0.1,0.1-0.3,0.2-0.5,0.2
		c-0.2,0-0.4-0.1-0.5-0.2c-0.1-0.1-0.2-0.3-0.2-0.6c0-0.5,0.2-0.9,0.7-1.3c0.5-0.4,1.1-0.6,2-0.6c0.7,0,1.2,0.1,1.6,0.3
		c0.3,0.2,0.5,0.4,0.7,0.8c0.1,0.2,0.1,0.7,0.1,1.4v2.5c0,0.7,0,1.1,0,1.3c0,0.2,0.1,0.3,0.1,0.3c0.1,0.1,0.1,0.1,0.2,0.1
		c0.1,0,0.2,0,0.2-0.1c0.1-0.1,0.3-0.3,0.6-0.6v0.4c-0.6,0.8-1.2,1.2-1.7,1.2c-0.3,0-0.5-0.1-0.6-0.3
		C218.4,50.6,218.3,50.3,218.3,49.8z M218.3,49.3v-2.8c-0.8,0.3-1.3,0.5-1.6,0.7c-0.4,0.2-0.7,0.5-0.9,0.7c-0.2,0.3-0.3,0.5-0.3,0.8
		c0,0.4,0.1,0.7,0.3,1c0.2,0.3,0.5,0.4,0.8,0.4C217.1,50.1,217.7,49.8,218.3,49.3z"/>
	<path class="st0" d="M223.6,44.9c0.9-1,1.7-1.6,2.5-1.6c0.4,0,0.7,0.1,1,0.3c0.3,0.2,0.5,0.5,0.7,1c0.1,0.3,0.2,0.8,0.2,1.5v3.1
		c0,0.5,0,0.8,0.1,0.9c0.1,0.1,0.2,0.2,0.3,0.3c0.1,0.1,0.4,0.1,0.7,0.1v0.3h-3.6v-0.3h0.2c0.3,0,0.6-0.1,0.7-0.2
		c0.1-0.1,0.2-0.3,0.3-0.5c0-0.1,0-0.3,0-0.8v-3c0-0.7-0.1-1.2-0.3-1.5c-0.2-0.3-0.5-0.5-0.9-0.5c-0.6,0-1.3,0.3-1.9,1v3.9
		c0,0.5,0,0.8,0.1,0.9c0.1,0.2,0.2,0.3,0.3,0.3c0.1,0.1,0.4,0.1,0.8,0.1v0.3h-3.6v-0.3h0.2c0.4,0,0.6-0.1,0.8-0.3
		c0.1-0.2,0.2-0.6,0.2-1.1v-2.7c0-0.9,0-1.4-0.1-1.6c0-0.2-0.1-0.3-0.2-0.4c-0.1-0.1-0.2-0.1-0.3-0.1c-0.1,0-0.3,0-0.5,0.1l-0.1-0.3
		l2.2-0.9h0.3V44.9z"/>
	<path class="st0" d="M234.8,50.1c-0.4,0.4-0.7,0.6-1,0.8c-0.3,0.2-0.7,0.2-1.1,0.2c-0.8,0-1.5-0.3-2.1-1c-0.6-0.7-0.9-1.5-0.9-2.6
		c0-1.1,0.3-2,1-2.9c0.7-0.9,1.5-1.3,2.6-1.3c0.6,0,1.2,0.2,1.6,0.6v-1.4c0-0.8,0-1.4-0.1-1.5c0-0.2-0.1-0.3-0.2-0.4
		c-0.1-0.1-0.2-0.1-0.3-0.1c-0.1,0-0.3,0-0.6,0.1l-0.1-0.3l2.2-0.9h0.4V48c0,0.9,0,1.4,0.1,1.6c0,0.2,0.1,0.3,0.2,0.4
		c0.1,0.1,0.2,0.1,0.3,0.1c0.1,0,0.3,0,0.6-0.1l0.1,0.3l-2.2,0.9h-0.4V50.1z M234.8,49.5v-3.8c0-0.4-0.1-0.7-0.3-1
		c-0.2-0.3-0.4-0.5-0.6-0.7c-0.3-0.2-0.5-0.2-0.8-0.2c-0.5,0-0.9,0.2-1.3,0.6c-0.5,0.6-0.7,1.4-0.7,2.4c0,1.1,0.2,1.9,0.7,2.5
		c0.5,0.6,1,0.9,1.6,0.9C233.9,50.2,234.4,50,234.8,49.5z"/>
</g>
</svg>
