<?xml version="1.0" encoding="utf-8"?>
<!-- Generator: Adobe Illustrator 21.1.0, SVG Export Plug-In . SVG Version: 6.00 Build 0)  -->
<svg version="1.1" id="Layer_1" xmlns="http://www.w3.org/2000/svg" xmlns:xlink="http://www.w3.org/1999/xlink" x="0px" y="0px"
	 viewBox="0 0 135 34.8" style="enable-background:new 0 0 135 34.8;" xml:space="preserve">
<style type="text/css">
	.st0{display:none;}
	.st1{display:inline;}
	.st2{fill:#FFFFFF;stroke:#FFFFFF;stroke-width:0.5;stroke-miterlimit:10;}
</style>
<g id="Layer_1_1_" class="st0">
	<g class="st1">
		<g>
			<path class="st2" d="M1.4,22.5C1,22.3,1,22.2,1,21.4c0-1.4,0.1-2.6,0.1-3.1c0-0.3,0.1-0.5,0.2-0.5c0.2,0,0.2,0.1,0.2,0.3
				c0,0.3,0,0.7,0.1,1.1c0.4,2.1,2.3,2.9,4.3,2.9c2.8,0,4.1-2,4.1-3.8c0-2-0.8-3.1-3.3-5.2L5.4,12c-3-2.4-3.7-4.2-3.7-6.1
				c0-3.1,2.3-5.2,6-5.2c1.1,0,2,0.1,2.7,0.3c0.5,0.1,0.8,0.1,1,0.1s0.3,0.1,0.3,0.2s-0.1,1.1-0.1,3.1c0,0.5-0.1,0.7-0.2,0.7
				c-0.2,0-0.2-0.1-0.2-0.4S11,3.6,10.8,3.3s-1-1.5-3.6-1.5c-2,0-3.6,1.2-3.6,3.3c0,1.6,0.8,2.7,3.5,4.9l0.8,0.6
				c3.4,2.7,4.2,4.5,4.2,6.8c0,1.2-0.5,3.4-2.5,4.8c-1.2,0.9-2.8,1.2-4.4,1.2C3.9,23.3,2.6,23.1,1.4,22.5z"/>
			<path class="st2" d="M16.8,11.4c0-3.8,0-4.5-0.1-5.3s-0.2-1.2-0.8-1.3c-0.3-0.1-0.5-0.1-0.7-0.1s-0.3-0.1-0.3-0.2
				s0.1-0.2,0.4-0.2c0.9,0,2.5,0.1,2.6,0.1c0.1,0,1.8-0.1,2.6-0.1c0.3,0,0.4,0.1,0.4,0.2s-0.1,0.2-0.3,0.2c-0.2,0-0.3,0-0.5,0.1
				c-0.8,0.1-0.9,0.5-1,1.4c-0.1,0.8,0,1.4,0,5.3v4.3c0,2.2,0,4.2,0.1,5.3c0.1,0.8,0.2,1.2,1,1.3c0.4,0.1,1,0.1,1.1,0.1
				c0.3,0,0.3,0.1,0.3,0.2s-0.1,0.2-0.4,0.2c-1.5,0-3.1-0.1-3.3-0.1c-0.1,0-1.8,0.1-2.6,0.1c-0.3,0-0.5-0.1-0.5-0.2s0.1-0.2,0.4-0.2
				c0.1,0,0.5,0,0.7-0.1c0.5-0.1,0.6-0.7,0.7-1.4c0.1-1,0.1-3.1,0.1-5.3v-4.3H16.8z"/>
			<path class="st2" d="M45.7,19.7c0.1,0.7,0.3,2.3,1.4,2.6c0.5,0.1,1.1,0.2,1.5,0.2c0.1,0,0.4,0,0.4,0.2c0,0.1-0.1,0.2-0.4,0.2
				c-0.5,0-3.6-0.1-4.6-0.2c-0.6-0.1-0.9-0.1-0.9-0.3c0-0.1,0.1-0.2,0.3-0.3c0.1-0.1,0.2-0.4,0.2-0.8L42.2,9l-6.1,12.4
				c-0.5,1.1-0.6,1.4-0.9,1.4c-0.2,0-0.3-0.3-0.9-1.2c-0.5-0.8-2.8-5.5-2.9-5.7c-0.2-0.3-3-5.9-3.2-6.6l-1.1,11.1c0,0.4,0,0.7,0,1.1
				c0,0.3,0.1,0.8,0.7,0.9c0.3,0.1,0.5,0.1,0.8,0.1c0.2,0,0.3,0.1,0.3,0.2c0,0.2-0.2,0.2-0.5,0.2c-0.9,0-2.2-0.1-2.4-0.1
				c-0.3,0-1.5,0.1-2.2,0.1c-0.3,0-0.4,0-0.4-0.2c0-0.1,0.1-0.2,0.4-0.2c0.2,0,0.2,0,0.5,0c0.7-0.1,1-0.8,1.1-1.9l1.9-15.8
				C27.4,4.2,27.5,4,27.6,4s0.2,0.1,0.4,0.5l7.7,15l7.4-15C43.3,4.2,43.4,4,43.6,4c0.2,0,0.3,0.3,0.3,0.7L45.7,19.7z"/>
			<path class="st2" d="M51.9,11.4c0-4,0-4.5-0.1-5.3s-0.3-1.2-1.1-1.4c-0.2,0-0.7-0.1-0.9-0.1c-0.1,0-0.2-0.1-0.2-0.1
				c0-0.2,0.1-0.2,0.4-0.2c1.2,0,2.8,0.1,3,0.1c0.6,0,2.1-0.1,3.3-0.1c3.2,0,4.3,1,4.7,1.4c0.5,0.5,1.3,1.6,1.3,3.2
				c0,3.2-2.7,5.5-6.3,5.5c-0.1,0-0.4,0-0.5,0s-0.3-0.1-0.3-0.2c0-0.2,0.2-0.2,0.7-0.2c2.3,0,4.2-1.6,4.2-4.1c0-0.4,0.1-2.1-1.2-3.5
				C57.5,4.9,55.8,5,55.3,5c-0.4,0-0.8,0.1-1,0.1c-0.1,0.1-0.2,0.3-0.2,0.5v10c0,2.2,0,4.3,0.1,5.3c0.1,0.7,0.2,1.3,1,1.4
				c0.3,0.1,0.9,0.1,1.2,0.1c0.1,0,0.2,0.1,0.2,0.1c0,0.1-0.1,0.2-0.4,0.2c-1.5,0-3.1-0.1-3.3-0.1c0,0-1.7,0.1-2.5,0.1
				c-0.3,0-0.4-0.1-0.4-0.2s0.1-0.1,0.2-0.1c0.2,0,0.5-0.1,0.8-0.1c0.5-0.1,0.7-0.7,0.8-1.4c0.1-1,0.1-3.1,0.1-5.3
				C51.9,15.6,51.9,11.4,51.9,11.4z"/>
			<path class="st2" d="M69,15.8c0,3.3,0.1,5,0.6,5.5c0.5,0.4,1,0.6,3,0.6c1.3,0,2.4,0,3.1-0.8c0.3-0.4,0.5-1,0.5-1.4
				c0-0.2,0.1-0.3,0.2-0.3s0.2,0.1,0.2,0.4s-0.2,1.9-0.3,2.6c-0.2,0.6-0.1,0.7-1.5,0.7c-2,0-4.1-0.1-7-0.1c-1,0-1.5,0.1-2.5,0.1
				c-0.3,0-0.5-0.1-0.5-0.2s0.1-0.2,0.3-0.2s0.5,0,0.7-0.1c0.5-0.1,0.7-0.7,0.8-1.4c0.2-1.1,0.1-3.1,0.1-5.3v-4.3
				c0-3.8,0-4.4-0.1-5.2S66.4,5.1,65.4,5c-0.2,0-0.5,0-0.7,0s-0.3-0.1-0.3-0.2s0.1-0.2,0.4-0.2c1.2,0,2.9,0.1,3,0.1
				c0.4,0,2.2-0.1,3-0.1c0.3,0,0.4,0.1,0.4,0.2S71.1,5,70.9,5s-0.5,0-0.8,0.1c-0.8,0.1-1,0.6-1,1.4C69,7,69,7.6,69,11.4V15.8z"/>
			<path class="st2" d="M82.2,16.6c0-1.4-0.2-1.9-0.6-2.7c-0.2-0.3-3.5-5.8-4.4-7c-0.8-1.1-1.1-1.4-1.5-1.8
				c-0.4-0.3-0.8-0.4-1.4-0.4c-0.2,0-0.3-0.1-0.3-0.2s0.1-0.2,0.3-0.2c0.5,0,2.7,0.1,2.7,0.1c0.2,0,1.1-0.1,2.2-0.1
				c0.3,0,0.4,0.1,0.4,0.2s-0.1,0.2-0.3,0.2C79,4.8,78.9,5,78.9,5.2c0,0.3,0.2,0.6,0.4,1c0.4,0.7,4.2,6.8,4.6,7.6
				c0.5-1,3.7-6.3,4.1-7c0.5-1,0.7-1.2,0.7-1.5c0-0.4-0.3-0.4-0.7-0.4c-0.2,0-0.3-0.1-0.3-0.2s0.1-0.2,0.3-0.2
				c0.7,0,1.3,0.1,1.8,0.1c0.4,0,2-0.1,2.5-0.1c0.3,0,0.3,0.1,0.3,0.2s-0.1,0.2-0.3,0.2c-0.6,0-1,0.1-1.4,0.4s-0.6,0.5-1.1,1.2
				c-1.7,2.3-4.5,7-4.9,8c-0.3,0.9-0.3,1.5-0.3,2.3v2.1c0,0.2,0,1.3,0.1,2.3c0.1,0.7,0.1,1.2,1,1.4c0.4,0.1,0.9,0.1,1.1,0.1
				s0.3,0.1,0.3,0.2s-0.1,0.2-0.3,0.2c-1.4,0-3.2-0.1-3.3-0.1c-0.1,0-1.8,0.1-2.6,0.1c-0.3,0-0.4-0.1-0.4-0.2s0.1-0.2,0.3-0.2
				c0.2,0,0.5,0,0.7-0.1c0.5-0.1,0.7-0.7,0.8-1.4c0.1-1,0.1-2.1,0.1-2.3v-2.3H82.2z"/>
		</g>
		<g>
			<path class="st2" d="M97,20.6c0,4.6,0,6.3-0.9,8.4c-0.6,1.4-1.8,2.7-4.1,4.3c-0.4,0.3-0.8,0.6-1.1,0.7c-0.1,0-0.1,0.1-0.2,0.1
				s-0.2-0.1-0.2-0.2c0-0.2,0.1-0.3,0.4-0.4c0.3-0.2,0.7-0.5,1-0.8c1.8-1.9,2.7-3.4,2.7-10.7V9.4c0-4.4,0-5.2-0.1-6.1
				c-0.1-1-0.3-1.4-1.2-1.6c-0.2-0.1-0.6-0.1-0.9-0.1c-0.2,0-0.3-0.1-0.3-0.2s0.1-0.2,0.4-0.2c1.3,0,3.1,0.1,3.2,0.1
				s1.9-0.1,2.8-0.1c0.3,0,0.5,0.1,0.5,0.2s-0.1,0.2-0.3,0.2c-0.2,0-0.4,0-0.7,0.1c-0.8,0.1-0.9,0.7-1,1.6c0,0.8,0,1.6,0,6.1
				C97,9.4,97,20.6,97,20.6z"/>
			<path class="st2" d="M99.1,13.4C99.1,9.6,102,4,109,4c5.6,0,9.9,3.3,9.9,9c0,5.4-4,9.8-10,9.8C101.9,22.9,99.1,17.7,99.1,13.4z
				 M116.2,13.8c0-5.7-3.5-8.9-7.4-8.9s-7.1,2.4-7.1,7.8c0,5.6,3.1,9.2,7.9,9.2C111.4,21.9,116.2,21,116.2,13.8z"/>
			<path class="st2" d="M120.7,11.3c0-3.7,0-4.4-0.1-5.2s-0.3-1.2-1.1-1.4c-0.2,0-0.5-0.1-0.7-0.1s-0.4-0.1-0.4-0.2
				c0-0.2,0.1-0.2,0.4-0.2c0.6,0,1.3,0.1,2.9,0.1c0.1,0,8.9,0,9.4,0c0.6,0,0.9-0.1,1.1-0.1c0.2-0.1,0.2-0.1,0.3-0.1s0.1,0.1,0.1,0.2
				c0,0.2-0.2,0.6-0.2,1.3c0,0.5-0.1,0.9-0.1,1.5c0,0.3-0.1,0.4-0.2,0.4c-0.1,0-0.2-0.1-0.2-0.3c0-0.4-0.1-0.7-0.2-0.9
				c-0.2-0.6-0.4-0.8-1.8-0.9c-0.4,0-6.9-0.1-6.9-0.1c-0.1,0-0.1,0.1-0.1,0.2v6.4c0,0.2,0,0.3,0.2,0.3c0.3,0,6.9,0,7.5-0.1
				c0.7,0,1.1-0.1,1.3-0.4c0.1-0.2,0.2-0.2,0.3-0.2s0.1,0,0.1,0.2c0,0.1-0.1,0.7-0.2,1.5c-0.1,0.8-0.1,1.4-0.1,1.7
				c0,0.2-0.1,0.3-0.2,0.3c-0.1,0-0.2-0.2-0.2-0.4s0-0.5-0.1-0.7c-0.1-0.4-0.3-0.8-1.4-0.9c-0.7-0.1-6.6-0.1-7.1-0.1
				c-0.2,0-0.2,0.1-0.2,0.2v2.1c0,0.9,0,3.4,0,3.9c0.1,1,0.2,1.6,0.8,1.8c0.4,0.2,4.8,0.3,5.8,0.3c0.5,0,1.4,0,2.2-0.2
				c0.9-0.3,1-0.8,1.3-1.9c0.1-0.3,0.1-0.4,0.3-0.4s0.2,0.3,0.2,0.4c0,0.2-0.2,2-0.3,2.5c-0.1,0.6-0.3,0.6-1.2,0.6
				c-1.9,0-6.3-0.1-7.3-0.1s-2.3-0.1-3.3-0.1c-0.7,0-1.2,0.1-1.9,0.1c-0.3,0-0.4-0.1-0.4-0.2s0.1-0.2,0.3-0.2c0.2,0,0.4,0,0.6-0.1
				c0.5-0.1,0.9-0.5,0.9-2.2c0-1,0.1-2.1,0.1-4.3v-4C120.9,11.3,120.7,11.3,120.7,11.3z"/>
		</g>
	</g>
</g>
</svg>
