<?xml version="1.0" encoding="utf-8"?>
<!-- Generator: Adobe Illustrator 23.0.0, SVG Export Plug-In . SVG Version: 6.00 Build 0)  -->
<svg version="1.1" id="Layer_1" xmlns="http://www.w3.org/2000/svg" xmlns:xlink="http://www.w3.org/1999/xlink" x="0px" y="0px"
	 viewBox="0 0 135 34.8" style="enable-background:new 0 0 135 34.8;" xml:space="preserve">
<style type="text/css">
	.st0{fill:#FFFFFF;}
</style>
<g>
	<path class="st0" d="M2,17.1c-0.3-0.1-0.4-0.2-0.4-0.7c0-1.1,0.1-2.3,0.1-2.7c0-0.3,0.1-0.5,0.2-0.5c0.2,0,0.2,0.2,0.2,0.3
		c0,0.3,0.1,0.7,0.2,1c0.4,1.5,1.7,2.1,2.9,2.1c1.8,0,2.7-1.2,2.7-2.3c0-1-0.3-1.9-2-3.3L5,10.3C2.8,8.6,2,7.2,2,5.5
		c0-2.2,1.9-3.9,4.7-3.9C8,1.6,8.9,1.8,9.4,2c0.2,0,0.3,0.1,0.3,0.2c0,0.3-0.1,0.9-0.1,2.5c0,0.4-0.1,0.6-0.2,0.6
		c-0.1,0-0.2-0.1-0.2-0.4c0-0.2-0.1-0.8-0.5-1.3c-0.3-0.4-0.9-1-2.2-1C4.9,2.6,4,3.5,4,4.7c0,0.9,0.5,1.7,2.2,2.9l0.6,0.4
		c2.5,1.9,3.4,3.3,3.4,5.2c0,1.2-0.4,2.6-1.9,3.6c-1,0.7-2.2,0.8-3.2,0.8C3.8,17.7,2.8,17.5,2,17.1z"/>
	<path class="st0" d="M14.5,9.1c0-2.7,0-3.2,0-3.7c0-0.6-0.2-0.9-0.6-1c-0.2-0.1-0.4-0.1-0.6-0.1c-0.2,0-0.3,0-0.3-0.2
		C13,4.1,13.1,4,13.4,4c0.7,0,1.8,0.1,2.3,0.1c0.4,0,1.5-0.1,2.2-0.1c0.2,0,0.4,0,0.4,0.1c0,0.1-0.1,0.2-0.3,0.2
		c-0.2,0-0.3,0-0.5,0.1c-0.5,0.1-0.6,0.4-0.7,1c0,0.6,0,1.1,0,3.7v3.1c0,1.7,0,3.1,0.1,3.9c0.1,0.5,0.2,0.8,0.7,0.9
		c0.2,0,0.6,0.1,0.9,0.1c0.2,0,0.3,0.1,0.3,0.1c0,0.1-0.1,0.2-0.3,0.2c-1.2,0-2.3-0.1-2.8-0.1c-0.4,0-1.5,0.1-2.2,0.1
		c-0.2,0-0.4-0.1-0.4-0.2c0-0.1,0.1-0.1,0.3-0.1c0.3,0,0.5,0,0.6-0.1c0.4-0.1,0.5-0.4,0.5-0.9c0.1-0.7,0.1-2.1,0.1-3.8V9.1z"/>
	<path class="st0" d="M23.1,4.1c0.1-0.3,0.2-0.5,0.3-0.5c0.1,0,0.2,0.1,0.5,0.5l4.8,10l4.8-10.1c0.1-0.3,0.2-0.4,0.4-0.4
		c0.2,0,0.3,0.2,0.3,0.5l1.6,10.9c0.2,1.1,0.3,1.6,0.9,1.8c0.5,0.2,0.9,0.2,1.1,0.2c0.2,0,0.3,0,0.3,0.1c0,0.1-0.2,0.2-0.5,0.2
		c-0.4,0-2.9-0.1-3.6-0.1c-0.4,0-0.5-0.1-0.5-0.2c0-0.1,0.1-0.1,0.2-0.2c0.1,0,0.2-0.3,0.1-0.8l-1.1-7.8h-0.1l-3.8,8
		c-0.4,0.8-0.5,1-0.7,1c-0.2,0-0.3-0.4-0.6-0.9c-0.4-0.8-1.8-3.5-2-4c-0.2-0.4-1.2-2.6-1.8-3.9h-0.1l-0.9,7c0,0.3-0.1,0.5-0.1,0.8
		c0,0.3,0.2,0.5,0.5,0.6c0.3,0.1,0.6,0.1,0.7,0.1c0.1,0,0.3,0,0.3,0.1c0,0.2-0.2,0.2-0.4,0.2c-0.7,0-1.5-0.1-1.9-0.1
		c-0.3,0-1.2,0.1-1.7,0.1c-0.2,0-0.3,0-0.3-0.2c0-0.1,0.1-0.1,0.3-0.1c0.1,0,0.3,0,0.5-0.1c0.5-0.1,0.6-0.8,0.7-1.4L23.1,4.1z"/>
	<path class="st0" d="M40.9,9.1c0-2.7,0-3.2,0-3.7c0-0.6-0.2-0.9-0.8-1c-0.1,0-0.4-0.1-0.7-0.1c-0.2,0-0.3,0-0.3-0.2
		c0-0.1,0.1-0.2,0.4-0.2c0.9,0,2,0.1,2.5,0.1c0.7,0,1.7-0.1,2.6-0.1c2.2,0,3,0.7,3.3,1c0.4,0.4,0.9,1.2,0.9,2.1
		c0,2.5-1.8,4.3-4.3,4.3c-0.1,0-0.3,0-0.4,0c-0.1,0-0.2,0-0.2-0.2c0-0.1,0.1-0.2,0.5-0.2c1,0,2.4-1.1,2.4-2.9c0-0.6-0.1-1.8-1-2.6
		c-0.6-0.6-1.4-0.7-1.8-0.7c-0.3,0-0.5,0-0.7,0.1c-0.1,0-0.1,0.1-0.1,0.3v7.1c0,1.6,0,3,0.1,3.8c0.1,0.5,0.2,0.9,0.7,1
		c0.2,0,0.6,0.1,0.9,0.1c0.2,0,0.3,0.1,0.3,0.1c0,0.1-0.1,0.2-0.3,0.2c-1.2,0-2.3-0.1-2.7-0.1c-0.4,0-1.5,0.1-2.2,0.1
		c-0.2,0-0.4-0.1-0.4-0.2c0-0.1,0.1-0.1,0.3-0.1c0.3,0,0.5,0,0.6-0.1c0.4-0.1,0.4-0.5,0.5-1c0.1-0.7,0.1-2.1,0.1-3.8V9.1z"/>
	<path class="st0" d="M54.7,12.2c0,2.3,0,3.5,0.4,3.8c0.3,0.3,0.8,0.4,2.1,0.4c0.9,0,1.6,0,2.1-0.5c0.2-0.2,0.4-0.7,0.5-1.1
		c0-0.2,0.1-0.3,0.2-0.3c0.1,0,0.1,0.1,0.1,0.3c0,0.2-0.1,1.5-0.3,2c-0.1,0.4-0.2,0.5-1.1,0.5c-1.3,0-2.2,0-3-0.1
		c-0.8,0-1.4-0.1-2.2-0.1c-0.2,0-0.6,0-1,0c-0.4,0-0.9,0-1.2,0c-0.2,0-0.4-0.1-0.4-0.2c0-0.1,0.1-0.1,0.3-0.1c0.3,0,0.5,0,0.6-0.1
		c0.4-0.1,0.4-0.5,0.5-1c0.1-0.7,0.1-2.1,0.1-3.8V9.1c0-2.7,0-3.2,0-3.7c0-0.6-0.2-0.9-0.8-1c-0.1,0-0.4-0.1-0.6-0.1
		c-0.2,0-0.3,0-0.3-0.2c0-0.1,0.1-0.2,0.4-0.2c0.8,0,1.9,0.1,2.4,0.1C54,4.1,55.3,4,56,4c0.2,0,0.4,0,0.4,0.2c0,0.1-0.1,0.2-0.3,0.2
		c-0.2,0-0.5,0-0.7,0.1c-0.5,0.1-0.6,0.4-0.7,1c0,0.6,0,1.1,0,3.7V12.2z"/>
	<path class="st0" d="M64.4,12.8c0-1-0.2-1.3-0.4-1.9c-0.1-0.3-2.5-4.2-3.1-5.1c-0.4-0.7-0.9-1.1-1.2-1.3c-0.2-0.1-0.5-0.2-0.7-0.2
		c-0.1,0-0.3,0-0.3-0.2C58.7,4.1,58.8,4,59,4c0.3,0,1.6,0.1,2.2,0.1c0.4,0,1.1-0.1,1.9-0.1c0.2,0,0.3,0.1,0.3,0.2
		c0,0.1-0.1,0.1-0.4,0.2c-0.2,0-0.2,0.2-0.2,0.3S62.8,5,63,5.3c0.2,0.5,2.7,4.8,3,5.3c0.2-0.4,2.4-4.3,2.6-4.9
		c0.2-0.4,0.2-0.7,0.2-0.9c0-0.2-0.1-0.4-0.4-0.4c-0.2,0-0.3-0.1-0.3-0.2c0-0.1,0.1-0.2,0.3-0.2c0.6,0,1.1,0.1,1.7,0.1
		C70.5,4.1,71.7,4,72,4c0.2,0,0.3,0,0.3,0.1c0,0.1-0.1,0.2-0.3,0.2c-0.2,0-0.5,0.1-0.8,0.2c-0.4,0.2-0.6,0.4-1,0.9
		c-0.6,0.7-3.1,4.9-3.4,5.6c-0.3,0.6-0.3,1.2-0.3,1.8v1.4c0,0.3,0,1,0.1,1.8c0,0.5,0.2,0.9,0.7,1c0.2,0,0.6,0.1,0.9,0.1
		c0.2,0,0.3,0.1,0.3,0.1c0,0.1-0.1,0.2-0.4,0.2c-1.1,0-2.2-0.1-2.7-0.1c-0.4,0-1.6,0.1-2.2,0.1c-0.2,0-0.4,0-0.4-0.2
		c0-0.1,0.1-0.1,0.3-0.1c0.2,0,0.5,0,0.6-0.1c0.4-0.1,0.5-0.5,0.5-1c0.1-0.7,0.1-1.5,0.1-1.8V12.8z"/>
	<path class="st0" d="M74.7,7.9c0-3.1,0-3.7,0-4.3c0-0.7-0.2-1-0.9-1.2c-0.2,0-0.5-0.1-0.8-0.1c-0.2,0-0.3,0-0.3-0.2
		c0-0.1,0.1-0.2,0.4-0.2c1.1,0,2.4,0.1,2.8,0.1c0.7,0,2.2-0.1,2.9-0.1c1.3,0,2.7,0.1,3.8,0.9c0.6,0.4,1.4,1.4,1.4,2.8
		c0,1.5-0.6,2.9-2.7,4.6c1.8,2.3,3.2,4.1,4.4,5.4c1.1,1.2,2,1.3,2.3,1.4c0.2,0,0.4,0.1,0.6,0.1c0.2,0,0.2,0.1,0.2,0.2
		c0,0.2-0.1,0.2-0.4,0.2h-1.9c-1.1,0-1.7-0.1-2.2-0.4c-0.9-0.5-1.7-1.4-2.8-3c-0.8-1.1-1.8-2.5-2-2.8C79.3,11,79.2,11,79.1,11
		l-1.8,0c-0.1,0-0.2,0-0.2,0.2v0.3c0,1.9,0,3.5,0.1,4.4c0.1,0.6,0.2,1,0.8,1.1c0.3,0,0.8,0.1,1,0.1c0.2,0,0.2,0.1,0.2,0.2
		c0,0.1-0.1,0.2-0.4,0.2c-1.2,0-2.7-0.1-3-0.1c-0.4,0-1.7,0.1-2.5,0.1c-0.3,0-0.4-0.1-0.4-0.2c0-0.1,0.1-0.2,0.3-0.2
		c0.3,0,0.6,0,0.7-0.1c0.4-0.1,0.5-0.5,0.6-1.1c0.1-0.9,0.1-2.5,0.1-4.4V7.9z M77.1,9.5c0,0.2,0,0.3,0.2,0.4c0.4,0.1,1,0.2,1.6,0.2
		c0.8,0,1.1-0.1,1.5-0.3c0.6-0.4,1.2-1.4,1.2-3.1c0-2.9-1.9-3.7-3.1-3.7c-0.5,0-0.9,0-1.1,0.1c-0.1,0-0.2,0.1-0.2,0.3V9.5z"/>
	<path class="st0" d="M87.8,10.7c0-3,2-6.9,7.3-6.9c4.4,0,7.1,2.6,7.1,6.6s-2.8,7.2-7.3,7.2C89.8,17.6,87.8,13.8,87.8,10.7z
		 M99.7,11c0-4-2.3-6.4-5.2-6.4c-2,0-4.3,1.1-4.3,5.5c0,3.7,2,6.6,5.4,6.6C96.8,16.7,99.7,16.1,99.7,11z"/>
	<path class="st0" d="M106.3,15.7c-1.7-1.5-2.2-3.5-2.2-5.2c0-1.2,0.4-3.3,2.1-4.8c1.3-1.2,2.9-1.9,5.6-1.9c1.1,0,1.7,0.1,2.6,0.2
		c0.7,0.1,1.2,0.2,1.8,0.3c0.2,0,0.3,0.1,0.3,0.2c0,0.1-0.1,0.4-0.1,1c0,0.6,0,1.6-0.1,1.9c0,0.3-0.1,0.4-0.2,0.4
		c-0.1,0-0.2-0.1-0.2-0.4c0-0.5-0.2-1.2-0.7-1.6c-0.6-0.6-2-1.1-3.6-1.1c-1.5,0-2.5,0.4-3.3,1.1c-1.3,1.2-1.6,2.9-1.6,4.6
		c0,4.2,3.2,6.3,5.6,6.3c1.6,0,2.5-0.2,3.2-1c0.3-0.3,0.5-0.8,0.6-1.2c0.1-0.3,0.1-0.4,0.2-0.4c0.1,0,0.2,0.1,0.2,0.3
		c0,0.2-0.2,1.7-0.4,2.3c-0.1,0.3-0.2,0.4-0.5,0.5c-0.7,0.3-2,0.4-3.2,0.4C109.9,17.6,107.9,17.1,106.3,15.7z"/>
	<path class="st0" d="M122.3,9.9L122.3,9.9c0.7-0.7,3.3-3.3,3.8-3.9c0.5-0.6,0.9-1,0.9-1.3c0-0.2-0.1-0.3-0.2-0.4
		c-0.2,0-0.2-0.1-0.2-0.2c0-0.1,0.1-0.2,0.3-0.2c0.4,0,1.3,0.1,1.8,0.1c0.5,0,1.5-0.1,2.1-0.1c0.2,0,0.3,0,0.3,0.2
		c0,0.1-0.1,0.2-0.3,0.2c-0.2,0-0.7,0.1-1,0.2c-0.5,0.2-1.1,0.6-1.9,1.3c-0.5,0.5-3.2,3.2-3.8,3.8c0.6,0.8,4.1,4.6,4.8,5.2
		c0.8,0.7,1.6,1.5,2.5,1.9c0.5,0.2,0.9,0.3,1.1,0.3c0.1,0,0.2,0,0.2,0.1c0,0.1-0.1,0.2-0.4,0.2h-1.5c-0.5,0-0.8,0-1.2,0
		c-1-0.1-1.4-0.5-2.2-1.1c-0.8-0.7-4.3-4.8-4.6-5.3l-0.2-0.3h-0.1v1.6c0,1.6,0,3,0.1,3.8c0,0.5,0.2,0.9,0.6,1c0.2,0,0.6,0.1,0.9,0.1
		c0.1,0,0.2,0.1,0.2,0.1c0,0.1-0.1,0.2-0.3,0.2c-1,0-2.1-0.1-2.5-0.1c-0.4,0-1.5,0.1-2.2,0.1c-0.2,0-0.4-0.1-0.4-0.2
		c0-0.1,0.1-0.1,0.3-0.1c0.3,0,0.5,0,0.6-0.1c0.4-0.1,0.4-0.5,0.5-1c0.1-0.7,0.1-2.1,0.1-3.8V9.1c0-2.7,0-3.2,0-3.7
		c0-0.6-0.2-0.9-0.8-1c-0.1,0-0.4-0.1-0.7-0.1c-0.2,0-0.3,0-0.3-0.2c0-0.1,0.1-0.2,0.4-0.2c0.9,0,2,0.1,2.5,0.1
		c0.4,0,1.5-0.1,2.1-0.1c0.2,0,0.4,0,0.4,0.2c0,0.1-0.1,0.2-0.2,0.2c-0.2,0-0.3,0-0.5,0.1c-0.5,0.1-0.6,0.4-0.7,1c0,0.6,0,1.1,0,3.7
		V9.9z"/>
</g>
</svg>
